<svg xmlns:xlink="http://www.w3.org/1999/xlink" width="24" height="24" viewBox="0 0 24 24" fill="none" xmlns="http://www.w3.org/2000/svg"><title>Theme</title><path d="M12 1C9.82441 1 7.69767 1.64514 5.88873 2.85383C4.07979 4.06253 2.66989 5.78049 1.83733 7.79048C1.00477 9.80047 0.78693 12.0122 1.21137 14.146C1.6358 16.2798 2.68345 18.2398 4.22183 19.7782C5.76021 21.3165 7.72022 22.3642 9.85401 22.7886C11.9878 23.2131 14.1995 22.9952 16.2095 22.1627C18.2195 21.3301 19.9375 19.9202 21.1462 18.1113C22.3549 16.3023 23 14.1756 23 12C23 10.5555 22.7155 9.12506 22.1627 7.79048C21.6099 6.4559 20.7996 5.24327 19.7782 4.22182C18.7567 3.20038 17.5441 2.39013 16.2095 1.83732C14.8749 1.28452 13.4445 1 12 1ZM12.1019 20.1215C9.9693 20.0499 7.94798 19.1524 6.46468 17.6184C4.98139 16.0845 4.15221 14.0342 4.15221 11.9004C4.15221 9.76662 4.98139 7.71632 6.46468 6.18239C7.94798 4.64847 9.9693 3.75096 12.1019 3.67937V20.1215Z" fill="#FFFFFF"></path></svg>