<svg xmlns:xlink="http://www.w3.org/1999/xlink" width="24" height="24" viewBox="0 0 24 24" fill="none" xmlns="http://www.w3.org/2000/svg"><title>Unlike</title><path d="M10.975 20.45L9.65 19.225C7.58333 17.3083 5.79167 15.4792 4.275 13.7375C2.75833 11.9958 2 10.175 2 8.275C2 6.775 2.50417 5.52083 3.5125 4.5125C4.52083 3.50417 5.76667 3 7.25 3C8.1 3 8.94167 3.20417 9.775 3.6125C10.6083 4.02083 11.35 4.69167 12 5.625C12.7333 4.69167 13.4917 4.02083 14.275 3.6125C15.0583 3.20417 15.8833 3 16.75 3C18.2333 3 19.4792 3.50417 20.4875 4.5125C21.4958 5.52083 22 6.775 22 8.275C22 10.175 21.2417 11.9958 19.725 13.7375C18.2083 15.4792 16.4167 17.3083 14.35 19.225L13.025 20.45C12.7417 20.7167 12.4 20.85 12 20.85C11.6 20.85 11.2583 20.7167 10.975 20.45Z" fill="#F75A5B"></path></svg>