<svg xmlns:xlink="http://www.w3.org/1999/xlink" width="24" height="24" viewBox="0 0 24 24" fill="none" xmlns="http://www.w3.org/2000/svg"><title>Upload</title><path d="M11.9998 15.775C11.7666 15.775 11.5708 15.6958 11.4124 15.5374C11.254 15.379 11.1748 15.1748 11.1748 14.9248V6.8752L8.8996 9.1498C8.7332 9.3166 8.5374 9.3958 8.3122 9.3874C8.0874 9.379 7.8916 9.2916 7.7248 9.1252C7.558 8.9584 7.4746 8.7584 7.4746 8.5252C7.4746 8.2916 7.558 8.0916 7.7248 7.9252L11.425 4.225C11.5082 4.1418 11.5998 4.0834 11.6998 4.0498C11.7998 4.0166 11.8998 4 11.9998 4C12.1166 4 12.2208 4.0166 12.3124 4.0498C12.404 4.0834 12.4914 4.1418 12.5746 4.225L16.3 7.9498C16.4664 8.1166 16.5496 8.3124 16.5496 8.5372C16.5496 8.7624 16.4664 8.9584 16.3 9.1252C16.1332 9.2916 15.9332 9.3748 15.7 9.3748C15.4664 9.3748 15.2664 9.2916 15.1 9.1252L12.8248 6.8752V14.9248C12.8248 15.1748 12.7456 15.379 12.5872 15.5374C12.4288 15.6958 12.233 15.775 11.9998 15.775ZM5.6746 19.6498C5.2246 19.6498 4.833 19.4832 4.4998 19.15C4.1666 18.8168 4 18.4252 4 17.9752V15.4252C4 15.1916 4.079 14.9956 4.237 14.8372C4.3954 14.6792 4.5914 14.6002 4.825 14.6002C5.075 14.6002 5.279 14.6792 5.437 14.8372C5.5954 14.9956 5.6746 15.1916 5.6746 15.4252V17.9752H18.325V15.4252C18.325 15.1916 18.4082 14.9956 18.5746 14.8372C18.7414 14.6792 18.9414 14.6002 19.1746 14.6002C19.4082 14.6002 19.6042 14.6792 19.7626 14.8372C19.9206 14.9956 19.9996 15.1916 19.9996 15.4252V17.9752C19.9996 18.4252 19.833 18.8168 19.4998 19.15C19.1666 19.4832 18.775 19.6498 18.325 19.6498H5.6746Z" fill="#FFFFFF"></path></svg>