<svg width="40" height="40" viewBox="0 0 40 40" xmlns="http://www.w3.org/2000/svg" xmlns:xlink="http://www.w3.org/1999/xlink"><title>Arrow</title><g id="Web-Student" stroke="none" stroke-width="1" fill="none" fill-rule="evenodd"><g id="Arrow" fill="none"><path d="M20,0 C31.045695,-2.02906125e-15 40,8.954305 40,20 C40,31.045695 31.045695,40 20,40 C8.954305,40 1.3527075e-15,31.045695 0,20 C-1.3527075e-15,8.954305 8.954305,2.02906125e-15 20,0 Z" id="Rectangle-1138" fill="#222222"></path><path d="M21.2249994,15.7631573 L28.395688,23.3112505 C28.7760738,23.7116567 28.7598442,24.3446136 28.359438,24.7249994 C28.1735885,24.9015565 27.927033,25 27.6706886,25 L13.3293114,25 C12.7770267,25 12.3293114,24.5522847 12.3293114,24 C12.3293114,23.7436556 12.4277549,23.4971001 12.604312,23.3112505 L19.7750006,15.7631573 C20.1553864,15.3627512 20.7883433,15.3465215 21.1887495,15.7269073 C21.2011406,15.7386789 21.2132279,15.7507662 21.2249994,15.7631573 Z" id="Triangle" fill="#FFFFFF"></path></g></g></svg>