<svg width="25" height="24" viewBox="0 0 25 24" xmlns="http://www.w3.org/2000/svg" xmlns:xlink="http://www.w3.org/1999/xlink"><g id="Web-Student" stroke="none" stroke-width="1" fill="none" fill-rule="evenodd"><g id="Course-structure-Q/A" transform="translate(-144.000000, -729.000000)" fill="#5624D0" fill-rule="nonzero"><g id="Group-3" transform="translate(118.005674, 664.000000)" fill="#5624D0"><g id="article_FILL0_wght400_GRAD0_opsz48-Copy" transform="translate(26.000000, 65.000000)" fill="#5624D0"><path d="M5.23333333,18.7 L14.4,18.7 L14.4,16.7 L5.23333333,16.7 L5.23333333,18.7 Z M5.23333333,13 L18.7666667,13 L18.7666667,11 L5.23333333,11 L5.23333333,13 Z M5.23333333,7.3 L18.7666667,7.3 L18.7666667,5.3 L5.23333333,5.3 L5.23333333,7.3 Z M2,24 C1.46666667,24 1,23.8 0.6,23.4 C0.2,23 0,22.5333333 0,22 L0,2 C0,1.46666667 0.2,1 0.6,0.6 C1,0.2 1.46666667,0 2,0 L22,0 C22.5333333,0 23,0.2 23.4,0.6 C23.8,1 24,1.46666667 24,2 L24,22 C24,22.5333333 23.8,23 23.4,23.4 C23,23.8 22.5333333,24 22,24 L2,24 Z M2,22 L22,22 L22,2 L2,2 L2,22 Z M2,2 L2,22 L2,2 Z" id="Shape" fill="#5624D0"></path></g></g></g></g></svg>