<svg width="24" height="24" viewBox="0 0 24 24" xmlns="http://www.w3.org/2000/svg" xmlns:xlink="http://www.w3.org/1999/xlink" class="edit-icon icon"><title>Edit</title><g id="Web-Admin" stroke="none" stroke-width="1" fill="none" fill-rule="evenodd"><g id="Chapter-details-forms-" transform="translate(-1184.000000, -389.000000)" fill="#5624D0" fill-rule="nonzero"><g id="Group-5" transform="translate(168.000000, 376.000000)" fill="#5624D0"><g id="Group-4" transform="translate(17.000000, 0.000000)" fill="#5624D0"><g id="edit_FILL0_wght400_GRAD0_opsz48" transform="translate(999.000000, 13.000000)" fill="#5624D0"><path d="M1.96452933,22.0354707 L3.40518417,22.0354707 L17.9099591,7.53069577 L16.4693042,6.09004093 L1.96452933,20.5948158 L1.96452933,22.0354707 Z M22.0682128,6.12278308 L17.8772169,1.93178718 L19.2523874,0.556616644 C19.6234652,0.185538881 20.0818554,0 20.627558,0 C21.1732606,0 21.6316508,0.185538881 22.0027285,0.556616644 L23.4433834,1.99727149 C23.8144611,2.36834925 24,2.82673943 24,3.37244202 C24,3.91814461 23.8144611,4.37653479 23.4433834,4.74761255 L22.0682128,6.12278308 Z M20.6930423,7.49795362 L4.19099591,24 L0,24 L0,19.8090041 L16.5020464,3.30695771 L20.6930423,7.49795362 Z M17.1896317,6.81036835 L16.4693042,6.09004093 L17.9099591,7.53069577 L17.1896317,6.81036835 Z" id="Shape" fill="#5624D0"></path></g></g></g></g></g></svg>