<svg xmlns="http://www.w3.org/2000/svg" xmlns:xlink="http://www.w3.org/1999/xlink" width="16px" height="16px" viewBox="0 0 16 16" version="1.1">
    <title>Skillup</title>
    <g id="UI" stroke="none" stroke-width="1" fill="none" fill-rule="evenodd">
        <g id="Skillup-favicon">
            <g id="192-copy" fill="#5624D0" fill-rule="nonzero">
                <circle id="Oval" cx="8" cy="8" r="8"/>
            </g>
            <g id="Group-3" transform="translate(3.000000, 4.000000)" stroke="#FFFFFF" stroke-width="0.5">
                <path d="M0.129432368,2.62070749 L4.98706605,5.10674907 C5.00837031,5.11765218 5.03362575,5.11760903 5.05489264,5.1066332 L9.87187595,2.62059128 C9.90828765,2.60179922 9.92257119,2.55704774 9.90377914,2.52063605 C9.89668651,2.5068933 9.88547667,2.49571045 9.87171685,2.48865099 L5.05473421,0.0173026252 C5.03355294,0.00643559844 5.00844345,0.00639285282 4.98722531,0.0171877002 L0.129590966,2.48853641 C0.0930705838,2.50711636 0.0785269892,2.551784 0.0971069385,2.58830439 C0.104197894,2.60224223 0.115511582,2.6135831 0.129432368,2.62070749 Z" id="Path-2"/>
                <path d="M1.78060439,3.48966244 L1.78060439,5.5 C1.78060439,6.88071187 2.89989252,8 4.28060439,8 L5.65732425,8 C7.03803613,8 8.15732425,6.88071187 8.15732425,5.5 L8.15732425,3.48966244 L8.15732425,3.48966244" id="Path-5"/>
                <line x1="9.92829229" y1="2.56206023" x2="9.92829229" y2="6.68258107" id="Path-3" stroke-linecap="round"/>
            </g>
        </g>
    </g>
</svg>
