<svg width="23" height="23" viewBox="0 0 23 23" fill="none" xmlns="http://www.w3.org/2000/svg"><title>Close</title><circle cx="11.3135" cy="11.3137" r="8" fill="white"></circle><path d="M11.3136 10.6066L9.19227 8.48529C8.99701 8.29003 8.68043 8.29003 8.48517 8.48529V8.48529C8.2899 8.68056 8.2899 8.99714 8.48517 9.1924L10.6065 11.3137L8.48517 13.435C8.2899 13.6303 8.2899 13.9469 8.48517 14.1421V14.1421C8.68043 14.3374 8.99701 14.3374 9.19227 14.1421L11.3136 12.0208L13.4349 14.1421C13.6302 14.3374 13.9468 14.3374 14.142 14.1421V14.1421C14.3373 13.9469 14.3373 13.6303 14.142 13.435L12.0207 11.3137L14.142 9.1924C14.3373 8.99714 14.3373 8.68056 14.142 8.48529V8.48529C13.9468 8.29003 13.6302 8.29003 13.4349 8.48529L11.3136 10.6066Z" fill="#222222"></path></svg>
