<svg width="24px" height="30px" viewBox="0 0 24 30" xmlns="http://www.w3.org/2000/svg" xmlns:xlink="http://www.w3.org/1999/xlink"><title>Shape</title><g id="Web-Student" stroke="none" stroke-width="1" fill="none" fill-rule="evenodd"><g id="Quiz-result-" transform="translate(-144.000000, -257.000000)" fill="#5624D0" fill-rule="nonzero"><g id="Group-10" transform="translate(144.000000, 257.000000)"><path d="M5.9625,23.625 L18.0375,23.625 L18.0375,21.375 L5.9625,21.375 L5.9625,23.625 Z M5.9625,17.25 L18.0375,17.25 L18.0375,15 L5.9625,15 L5.9625,17.25 Z M2.25,30 C1.65,30 1.125,29.775 0.675,29.325 C0.225,28.875 0,28.35 0,27.75 L0,2.25 C0,1.65 0.225,1.125 0.675,0.675 C1.125,0.225 1.65,0 2.25,0 L15.7875,0 L24,8.2125 L24,27.75 C24,28.35 23.775,28.875 23.325,29.325 C22.875,29.775 22.35,30 21.75,30 L2.25,30 Z M14.6625,9.225 L21.75,9.225 L14.6625,2.25 L14.6625,9.225 Z" id="Shape"></path></g></g></g></svg>
