<svg
                width="16px"
                height="20px"
                viewBox="0 0 16 20"
                xmlns="http://www.w3.org/2000/svg"
                xmlns:xlink="http://www.w3.org/1999/xlink"
              >
                <g
                  id="Web-Admin"
                  stroke="none"
                  stroke-width="1"
                  fill="none"
                  fill-rule="evenodd"
                >
                  <g
                    id="Course-Detail-form"
                    transform="translate(-166.000000, -538.000000)"
                    fill="#5624D0"
                    fill-rule="nonzero"
                  >
                    <g
                      id="Group-3"
                      transform="translate(150.000000, 522.000000)"
                    >
                      <g
                        id="description_FILL1_wght400_GRAD0_opsz48"
                        transform="translate(16.000000, 16.000000)"
                      >
                        <path
                          d="M3.975,15.75 L12.025,15.75 L12.025,14.25 L3.975,14.25 L3.975,15.75 Z M3.975,11.5 L12.025,11.5 L12.025,10 L3.975,10 L3.975,11.5 Z M1.5,20 C1.1,20 0.75,19.85 0.45,19.55 C0.15,19.25 0,18.9 0,18.5 L0,1.5 C0,1.1 0.15,0.75 0.45,0.45 C0.75,0.15 1.1,0 1.5,0 L10.525,0 L16,5.475 L16,18.5 C16,18.9 15.85,19.25 15.55,19.55 C15.25,19.85 14.9,20 14.5,20 L1.5,20 Z M9.775,6.15 L14.5,6.15 L9.775,1.5 L9.775,6.15 Z"
                          id="Shape"
                        ></path>
                      </g>
                    </g>
                  </g>
                </g>
              </svg>
