<svg width="16" height="17" viewBox="0 0 16.0 17.0" xmlns="http://www.w3.org/2000/svg" xmlns:xlink="http://www.w3.org/1999/xlink"><defs><clipPath id="i0"><path d="M1440,0 L1440,2371 L0,2371 L0,0 L1440,0 Z"></path></clipPath><clipPath id="i1"><path d="M14.4789172,0.00247845008 C15.5654516,0.0124413311 15.6186153,0.0157622914 15.7050064,0.0821814979 C15.9209842,0.241587593 15.9342751,0.281439117 15.9442433,0.892495817 C15.9575343,1.55336692 15.9176615,1.85557431 15.7847521,2.1411769 C15.6618109,2.39356988 15.3893466,2.67253055 15.1401415,2.79872704 L14.9540683,2.89171393 L14.9407774,5.57172891 C14.9344484,6.97285789 14.9281193,8.16012003 14.9246606,8.30157193 L14.9241637,8.50745784 C14.9308092,8.64361721 14.8610317,8.76317179 14.7181541,8.86944252 C14.6251176,8.93918268 7.58756493,10.9550056 7.4513328,10.9516887 C7.40149177,10.9516887 5.78331985,10.500034 3.85613358,9.94543366 C1.92894731,9.39415425 0.300807182,8.91593596 0.240997953,8.88272636 C-0.0879528075,8.71003642 -0.0779846026,8.20857141 0.257611628,8.03920244 C0.321574275,8.00571609 0.801547954,7.85781804 1.3596982,7.6978277 L1.51360544,7.65397104 C1.61716401,7.62408239 1.7197996,7.59456275 1.81937397,7.56599634 L2.2395788,7.44585368 C2.53910759,7.36048117 2.7618462,7.2975213 2.81611754,7.28202348 L2.99222249,7.23220908 L2.99222249,6.82041 C2.99222249,5.90382495 3.29791411,5.49202587 4.26482998,5.10679447 C5.39455986,4.6518229 6.62729453,4.45588625 7.9364521,4.51898449 C8.96649994,4.56547794 9.97328863,4.79794516 10.883718,5.1964604 C11.3023826,5.38243418 11.5117149,5.53851931 11.6878199,5.80087518 C11.8805385,6.08979872 11.9337022,6.27909346 11.9536387,6.79384231 L11.9735751,7.23553004 L12.1928756,7.29862828 C12.312494,7.33515885 12.7344814,7.45471342 13.1265641,7.56762607 C13.4315173,7.65544702 13.7103399,7.73322309 13.8348354,7.76814101 L13.9007613,7.78680945 C13.9410925,7.7994062 13.9527398,7.72599757 13.9560128,6.67779552 L13.9569361,6.19235293 C13.9569982,6.13187194 13.9570488,6.0691265 13.9570897,6.00403314 L13.9572478,2.89835585 L13.7744974,2.80868992 C13.415642,2.63267903 13.1165959,2.27069435 13.0102684,1.88214199 C12.9670728,1.70945206 12.9571046,1.55004596 12.9670728,0.985482706 C12.977041,0.218340871 12.9870092,0.185131268 13.2262461,0.0556138153 C13.3036463,0.0157622914 13.3694572,0.00238652038 13.7731116,0.000301879297 L14.1446581,0.000618225609 C14.2437274,0.00105353977 14.3546078,0.00169704765 14.4789172,0.00247845008 Z"></path></clipPath><clipPath id="i2"><path d="M6.80163845,0.758729734 C7.16381656,1.00115984 7.77852252,1.62882134 8.03437311,2.0173737 C8.51284695,2.73802209 8.81853856,3.59150889 8.89496147,4.40846513 L8.91822061,4.65089523 L8.7554066,4.53466162 C8.29686918,4.20920751 7.02093895,3.77748267 6.03408667,3.61475561 C4.76480192,3.40553511 3.60184469,3.44538664 2.29600985,3.73431018 C1.55836269,3.9003582 0.521669387,4.29223152 0.156168543,4.54130354 L0,4.65089523 L0.0199364097,4.47156338 C0.169459483,3.18303077 0.661224255,2.12696539 1.5018762,1.28676243 C2.23620062,0.552830194 3.30279854,0.0646490263 4.29297356,0.00487174047 C5.07381627,-0.0416217041 6.03740941,0.247301844 6.80163845,0.758729734 Z"></path></clipPath><clipPath id="i3"><path d="M6.96638721,0 L6.96638721,2.34127703 L5.79346178,4.101386 C5.15217393,5.06778546 4.60059993,5.86481593 4.57401805,5.86813689 C4.54743617,5.87145785 4.36136301,5.83492729 4.15867618,5.78179192 C2.80964579,5.43309109 1.71978872,4.67259118 0.925655071,3.52685986 C0.713000034,3.21801055 0.394017478,2.57374425 0.27439902,2.20843862 C0.0850031278,1.62727056 -0.0512290052,0.637624382 0.0185484288,0.371947556 C0.0584212482,0.232467223 0.188007911,0.0896659288 0.330885514,0.0365305636 C0.383495484,0.0143908281 1.13526427,0.00378220481 2.67656718,0.000860989714 L6.96638721,0 Z"></path></clipPath><clipPath id="i4"><path d="M6.7119246,0.0630982462 C6.90796597,0.166048016 6.95780699,0.268997786 6.97442066,0.574526136 C7.01097075,1.43465486 6.6355017,2.66673114 6.07728223,3.49365026 C5.29643951,4.64934445 4.10357767,5.47294261 2.74125634,5.79507577 C2.54853771,5.84156921 2.3857237,5.87809977 2.37907823,5.87809977 C2.37298654,5.87809977 2.16959209,5.5792031 1.86444401,5.12314106 L1.68848263,4.85964518 C1.53439593,4.6284962 1.36287512,4.37019929 1.18289364,4.09806504 L-3.31290551e-13,2.32135127 L-3.31290551e-13,0 L4.88839897,0.000886006258 C6.5084387,0.00376049919 6.6248494,0.0156280486 6.7119246,0.0630982462 Z M3.15761164,1.99281862 L3.01704334,1.99257619 C2.39236917,1.99257619 2.29933259,2.009181 2.14980951,2.15198229 C1.90392713,2.38777047 2.00028644,2.82281628 2.32591447,2.95233373 C2.37243276,2.96893853 2.67812437,2.98554333 3.00707513,2.98554333 C3.52874452,2.98886429 3.6217811,2.98222237 3.72146315,2.92576605 C3.90421357,2.8294582 3.97066827,2.71322459 3.97066827,2.49072024 C3.97066827,2.2682159 3.90421357,2.15198229 3.72146315,2.05567444 C3.6317493,2.00486375 3.54472687,1.99440272 3.15761164,1.99281862 Z"></path></clipPath><clipPath id="i5"><path d="M1.12568629,0 L1.68390576,0.853486803 C1.99292011,1.32174221 2.2388025,1.71029457 2.2288343,1.72025745 C2.22218883,1.72689937 2.08263396,1.70697361 1.91981995,1.67708496 C1.53105996,1.59738192 0.670471604,1.59738192 0.321584434,1.673764 C-0.023980001,1.75346705 -0.0372709408,1.75014609 0.0358292282,1.6405544 C0.0657338427,1.58741904 0.324907169,1.19886668 0.610662375,0.773783756 L1.12568629,0 Z"></path></clipPath></defs><g transform="translate(-134.0 -996.0)"><g clip-path="url(#i0)"><g transform="translate(134.0 996.0)"><g transform="translate(8.881784197001252e-16 17.0) scale(1.0 -1.0)"><g transform="translate(0.05333747701264269 6.048311261196184)"><g clip-path="url(#i1)"><polygon points="0,-1.11022302e-16 15.9466625,-1.11022302e-16 15.9466625,10.9516928 0,10.9516928 0,-1.11022302e-16" stroke="none" fill="#FFFFFF"></polygon></g></g><g transform="translate(3.009009885566761 5.982819724637976)"><g clip-path="url(#i2)"><polygon points="0,-1.04083409e-17 8.91822061,-1.04083409e-17 8.91822061,4.65089523 0,4.65089523 0,-1.04083409e-17" stroke="none" fill="#FFFFFF"></polygon></g></g><g transform=""><g clip-path="url(#i3)"><polygon points="5.55111512e-17,0 6.96638721,0 6.96638721,5.86834617 5.55111512e-17,5.86834617 5.55111512e-17,0" stroke="none" fill="#FFFFFF"></polygon></g></g><g transform="translate(7.963207698979659 0.0)"><g clip-path="url(#i4)"><polygon points="-3.31290551e-13,0 6.97687281,0 6.97687281,5.87809977 -3.31290551e-13,5.87809977 -3.31290551e-13,0" stroke="none" fill="#FFFFFF"></polygon></g></g><g transform="translate(6.352402103570535 3.384058570685259)"><g clip-path="url(#i5)"><polygon points="-2.77555756e-16,0 2.22912702,0 2.22912702,1.72880828 -2.77555756e-16,1.72880828 -2.77555756e-16,0" stroke="none" fill="#FFFFFF"></polygon></g></g></g></g></g></g></svg>