<svg xmlns:xlink="http://www.w3.org/1999/xlink" width="184" height="159" viewBox="0 0 184 159" fill="none" xmlns="http://www.w3.org/2000/svg"><path d="M88.3368 149.962C87.8154 150.092 87.2939 150.136 86.7725 150.136C86.6856 150.136 86.5987 150.136 86.5118 150.136C82.8619 150.006 79.4727 147.138 77.387 143.314C68.1318 126.281 65.6116 115.766 62.2659 104.251C61.4403 101.383 61.6575 98.472 62.8742 96.3863C63.8301 94.7786 65.3509 93.6054 67.4366 93.3882C67.6973 93.3447 67.9146 93.3447 68.1753 93.3447C71.8687 93.3447 75.7358 96.2994 77.2566 100.123L93.1164 138.969C95.1152 143.879 92.9426 148.919 88.3368 149.962Z" fill="#FFB96C"></path><path d="M86.5118 150.136C82.8619 150.005 79.4727 147.138 77.387 143.314C68.1318 126.281 65.6116 115.766 62.2659 104.251C61.4403 101.383 61.6575 98.4719 62.8742 96.3862C67.0021 106.38 80.559 139.186 84.7303 146.833C85.3821 148.05 85.9904 149.136 86.5118 150.136Z" fill="#FCAF63"></path><path d="M108.238 144.096C107.847 145.096 107.325 145.878 106.804 146.269C103.675 148.746 100.59 149.31 95.4196 150.44C90.2489 151.57 84.9043 151.309 82.4276 148.963C81.602 148.181 80.9937 147.312 80.6461 146.399C79.5598 143.792 80.5157 141.055 83.6008 139.881C85.4258 139.186 102.024 135.276 104.762 135.797C109.498 136.709 109.411 141.185 108.238 144.096Z" fill="#FFB96C"></path><path d="M108.238 144.096C107.847 145.096 107.325 145.878 106.804 146.269C103.675 148.746 100.59 149.31 95.4195 150.44C90.2488 151.57 84.9042 151.309 82.4275 148.963C81.6019 148.181 80.9936 147.312 80.646 146.399C82.0364 146.79 84.8173 147.312 89.5536 146.79C93.5511 146.356 101.763 145.096 108.238 144.096Z" fill="#FCAF63"></path><path d="M103.893 136.101C98.722 137.839 99.2869 141.272 100.069 144.618C100.851 147.963 107.282 156.567 109.237 157.001C111.193 157.436 111.323 156.654 110.802 155.046C110.28 153.438 106.587 147.833 106.587 147.833C106.587 147.833 110.671 153.395 112.366 155.046C114.06 156.697 115.494 156.567 115.451 154.742C115.364 152.917 111.323 146.79 111.323 146.79C111.323 146.79 114.886 151.483 116.363 153.091C117.841 154.698 119.796 154.438 119.101 152.265C118.449 150.092 115.494 145.356 115.494 145.356C115.494 145.356 118.362 150.136 120.274 150.614C122.186 151.092 121.013 148.224 118.97 144.574C116.972 140.837 110.324 133.929 103.893 136.101Z" fill="#FEA691"></path><path d="M99.5473 140.881C99.5473 140.881 98.461 145.139 99.1562 148.876C99.8514 152.613 101.025 153.351 101.807 153.525C102.589 153.699 102.85 152.7 102.459 151.092C102.067 149.484 103.11 146.312 103.11 146.312C103.11 146.312 101.981 139.925 99.5473 140.881Z" fill="#FEA691"></path><path d="M79.082 154.524H35.2394C35.2394 154.524 29.1997 112.29 33.0234 101.905C34.1097 98.9499 35.5436 96.5601 37.1948 94.5613C41.3226 89.5209 46.6237 87.218 50.2302 86.3055C54.9664 85.0889 59.0943 85.0454 62.6574 85.9145C72.1298 88.1739 77.3874 96.8208 79.082 106.25C81.4284 119.242 79.082 154.524 79.082 154.524Z" fill="#FEC272"></path><path d="M50.6209 94.7786C44.8853 96.2559 39.6276 96.0821 37.1509 94.5613C41.2788 89.5209 46.5799 87.218 50.1863 86.3055C54.9226 85.0889 59.0504 85.0454 62.6135 85.9145C63.3956 88.8692 58.0076 92.8667 50.6209 94.7786Z" fill="#F9B35F"></path><path d="M46.8842 104.686C46.8842 105.381 46.8408 106.076 46.7104 106.728C44.9289 118.286 34.6743 146.095 34.6743 146.095C33.9356 148.311 32.3714 149.962 30.4595 150.875C28.5477 151.744 26.3316 151.918 24.2025 151.092C20.9002 149.788 19.3359 146.66 19.3359 143.227C19.3359 142.489 19.4228 141.75 19.5532 141.011C22.5514 124.804 27.8959 111.377 32.2845 101.905C34.1964 97.7335 38.8891 95.1264 43.017 97.2121C44.2771 97.8204 45.1461 98.8198 45.7979 99.9495C46.58 101.34 46.8842 102.991 46.8842 104.686Z" fill="#FFCD92"></path><path d="M46.8842 104.686C46.8842 105.381 46.8407 106.076 46.7103 106.728C44.9288 118.286 34.6743 146.095 34.6743 146.095C33.9356 148.311 32.3713 149.962 30.4595 150.875L45.7544 99.906C46.58 101.34 46.8842 102.991 46.8842 104.686Z" fill="#FCB765"></path><path d="M60.5714 150.788C59.6155 153.134 56.487 153.221 56.487 153.221C56.487 153.221 47.7098 153.742 40.1058 153.742C32.5017 153.742 25.0281 153.742 21.9865 150.31C21.3781 149.615 20.9002 148.832 20.6395 148.007C19.5097 144.835 20.9436 141.055 25.4626 139.143C28.7215 137.752 32.4583 138.23 36.5427 138.621C40.6272 139.012 48.4919 140.837 53.0543 142.054C57.6602 143.227 60.3976 144.4 60.7887 148.746C60.919 149.571 60.7887 150.223 60.5714 150.788Z" fill="#FFCD92"></path><path d="M60.5716 150.788C59.6157 153.134 56.4872 153.221 56.4872 153.221C56.4872 153.221 47.7099 153.742 40.1059 153.742C32.5019 153.742 25.0282 153.742 21.9866 150.31C21.3783 149.615 20.9004 148.832 20.6396 148.007C24.0289 149.05 28.5913 150.266 32.2412 150.57C42.5392 151.44 56.183 151.005 60.5716 150.788Z" fill="#FCB765"></path><path d="M69.7402 143.792C69.7402 144.487 69.6532 145.226 69.4794 146.008C68.567 149.745 63.7438 152.613 56.4005 153.004C53.1417 153.177 50.9256 153.177 49.4483 152.83C47.5364 152.352 46.7977 151.222 46.6239 148.876C46.4067 145.878 48.6662 143.14 50.3608 141.967C55.4446 138.534 60.1808 138.274 64.3087 138.665C68.0021 139.056 69.6967 141.098 69.7402 143.792Z" fill="#FEA691"></path><path d="M69.7398 143.792C69.7398 144.487 69.6529 145.226 69.4791 146.008C68.5666 149.745 63.7435 152.613 56.4002 153.004C53.1413 153.177 50.9253 153.177 49.4479 152.83C49.2741 152.395 49.1438 151.874 49.1003 151.222C48.8831 148.659 51.0122 146.269 52.6634 145.269C57.4865 142.315 62.0054 142.054 65.9161 142.445C67.6541 142.575 68.9142 143.053 69.7398 143.792Z" fill="#FC8172"></path><path d="M75.432 151.353C75.432 151.831 75.3451 152.265 75.2147 152.743H51.3164C51.186 152.308 51.0991 151.831 51.0991 151.353C51.0991 147.181 56.5306 143.792 63.2655 143.792C70.0005 143.792 75.432 147.181 75.432 151.353Z" fill="#C7DCF9"></path><path opacity="0.55" d="M74.9108 152.004C74.9108 152.265 74.8673 152.482 74.737 152.743H52.8808C52.7505 152.482 52.707 152.265 52.707 152.004C52.707 149.788 57.6605 147.963 63.7872 147.963C69.9573 147.963 74.9108 149.788 74.9108 152.004Z" fill="#C7DCF9"></path><path d="M70.1746 137.405C71.7389 137.578 72.8252 138.578 73.4335 140.663C74.0418 142.749 74.1722 145.834 73.5204 146.92C72.8686 148.007 71.652 148.485 70.305 147.398C68.958 146.312 68.2193 143.271 67.7848 141.75C67.2634 139.751 66.6551 137.057 70.1746 137.405Z" fill="#FEA691"></path><path d="M64.3521 136.405C66.0467 136.579 66.7419 138.013 67.3937 140.186C68.0454 142.358 68.1758 145.66 67.4806 146.834C66.7854 147.963 65.4818 148.485 64.0479 147.355C62.614 146.225 61.7884 142.966 61.3539 141.359C60.789 139.23 60.5283 136.058 64.3521 136.405Z" fill="#FEA691"></path><path d="M66.0468 147.92C65.4384 148.05 64.7432 147.92 64.048 147.312C62.6141 146.182 61.832 142.923 61.354 141.315C60.876 139.577 60.6153 137.101 62.6575 136.492C62.2665 137.665 62.4837 139.273 62.7879 140.49C63.2224 142.358 64.048 146.138 65.4819 147.442C65.6992 147.659 65.873 147.833 66.0468 147.92Z" fill="#FF8D76"></path><path d="M58.0077 137.405C59.7024 137.578 60.8321 138.665 61.4839 140.837C62.1356 143.01 62.266 146.312 61.5708 147.485C60.8755 148.615 59.572 149.136 58.1381 148.007C56.7042 146.877 55.8786 143.618 55.4441 142.01C54.8792 139.881 54.2275 137.013 58.0077 137.405Z" fill="#FEA691"></path><path d="M59.7024 148.615C59.2244 148.615 58.703 148.398 58.1816 147.963C56.7477 146.834 55.9656 143.575 55.4876 141.967C55.0531 140.316 54.5317 138.23 56.1394 137.535C56.009 138.621 56.3132 140.012 56.6173 141.141C57.1388 143.097 58.0512 147.094 59.659 148.528C59.659 148.615 59.659 148.615 59.7024 148.615Z" fill="#FF8D76"></path><path d="M52.3157 138.621C53.793 138.187 54.9228 139.794 55.4876 141.793C56.0525 143.792 56.2263 146.834 55.5745 147.876C54.9662 148.919 53.7496 149.397 52.446 148.354C51.1425 147.312 50.7949 145.313 50.4038 143.835C49.8824 141.924 49.4479 139.49 52.3157 138.621Z" fill="#FEA691"></path><path d="M53.9235 148.963C53.4456 148.963 52.9676 148.789 52.4462 148.354C51.1426 147.311 50.795 145.313 50.404 143.835C49.926 142.184 49.5784 140.142 51.3164 139.056C51.1861 140.229 51.4033 141.489 51.6206 142.619C52.0117 144.617 52.3158 147.355 53.7932 148.832C53.8366 148.876 53.8801 148.919 53.9235 148.963Z" fill="#FF8D76"></path><path d="M71.9994 147.963C71.4779 148.007 70.9131 147.833 70.3482 147.355C69.0012 146.269 68.2625 143.227 67.828 141.706C67.3935 140.099 66.8721 138.013 68.6101 137.491C68.6101 138.447 68.8274 139.534 69.0447 140.49C69.4792 142.445 70.3048 146.356 71.6952 147.746C71.8256 147.833 71.9125 147.92 71.9994 147.963Z" fill="#FF8D76"></path><path d="M51.1426 41.1161C51.1426 41.1161 55.1836 39.4649 57.921 44.9398C60.6585 50.4581 57.7038 53.9777 57.7038 53.9777C57.7038 53.9777 55.0098 46.0261 51.1426 41.1161Z" fill="#FF8D76"></path><path d="M53.9231 91.4763C50.0994 93.2578 47.4489 90.7811 47.4489 90.7811L45.059 85.6103L40.7573 76.3117C47.2316 74.9213 52.8803 73.835 52.8803 73.835L53.8797 77.9629L55.7481 85.6538C55.6612 85.6972 57.7469 89.7382 53.9231 91.4763Z" fill="#FEA691"></path><path d="M53.8367 78.0063C53.2718 78.8319 52.6635 79.7009 51.9249 80.5265C50.0564 82.7425 47.3624 84.4371 45.0161 85.6103L40.7144 76.3117C47.1886 74.9213 52.8373 73.835 52.8373 73.835L53.8367 78.0063Z" fill="#FF8D76"></path><path d="M50.2905 77.3074C59.9694 71.4242 61.9854 57.0632 54.7934 45.2313C47.6015 33.3994 33.9251 28.5769 24.2462 34.4601C14.5674 40.3433 12.5514 54.7042 19.7433 66.5362C26.9353 78.3681 40.6117 83.1905 50.2905 77.3074Z" fill="#FEA691"></path><path d="M54.8794 73.1833C53.6193 74.7911 52.0551 76.1815 50.2736 77.3112C40.5839 83.1772 26.9401 78.3541 19.7272 66.5353C12.6011 54.8468 14.513 40.6382 23.9419 34.6418C18.4671 41.681 18.2063 52.9784 24.0723 62.5812C31.2418 74.4 44.929 79.2231 54.6187 73.3572C54.7056 73.3137 54.7925 73.2703 54.8794 73.1833Z" fill="#FF8D76"></path><path d="M28.7212 73.4875C28.7212 73.4875 21.3345 67.665 19.4661 57.2366C17.5976 46.8083 19.6833 42.5935 28.2433 37.5531C36.8032 32.5562 43.1906 34.3377 43.1906 34.3377C43.1906 34.3377 37.1074 29.7753 27.157 31.4699C17.2066 33.121 7.08237 42.5935 9.16805 56.8456C11.3406 72.0536 20.3785 76.5291 28.7212 73.4875Z" fill="#1C3177"></path><path d="M37.6725 46.2434C36.4993 47.069 38.1504 51.4576 41.7134 54.7164C45.2765 57.9753 48.7091 56.2807 48.796 53.0653C48.8829 49.763 41.7134 43.3756 37.6725 46.2434Z" fill="#F76F59"></path><path d="M20.1616 65.6228C20.1616 65.6228 13.2094 72.4447 19.4664 78.3975C25.4627 84.0897 33.0233 76.4422 33.0233 76.4422C33.0233 76.4422 22.4211 70.7501 20.1616 65.6228Z" fill="#FF8D76"></path><path d="M20.9869 69.5767C20.9869 69.5767 17.0763 73.4004 20.5959 76.7896C23.9851 80.005 28.2434 75.7033 28.2434 75.7033C28.2434 75.7033 22.247 72.4879 20.9869 69.5767Z" fill="#F76F59"></path><path d="M42.3219 33.7728C42.3219 33.7728 43.0605 20.6505 35.5869 15.3059C27.1573 9.30961 22.4211 17.9565 25.202 25.0391C26.4186 28.211 27.7222 30.1229 28.765 31.2526C29.7209 32.2955 31.0245 32.9038 32.4149 32.9907L42.3219 33.7728Z" fill="#1C3177"></path><path d="M13.7306 22.6927C7.08252 27.9938 12.8181 35.5978 15.5556 37.64C16.7288 38.509 17.9889 39.2042 19.0751 39.7257C20.5525 40.4209 22.2906 40.334 23.681 39.465L33.0665 33.5121C33.0665 33.5555 22.5513 15.697 13.7306 22.6927Z" fill="#1C3177"></path><path d="M29.5037 13.872C27.418 14.1327 29.7209 18.1302 32.7625 18.6516C35.8041 19.173 34.8482 13.2202 29.5037 13.872Z" fill="#789FEF"></path><path d="M16.338 22.7796C15.1213 24.1701 18.2933 25.9516 20.8569 25.0826C23.464 24.257 19.032 19.738 16.338 22.7796Z" fill="#789FEF"></path><path d="M55.0098 62.8418C54.7926 63.2763 54.4884 63.6674 54.0539 64.015C52.4462 65.2751 51.2296 67.1001 50.3605 69.0119C49.5784 70.7066 47.5796 72.7053 45.7112 71.2714C45.494 71.0976 45.2767 70.9238 45.1029 70.6631C43.1476 68.1864 43.8863 61.799 46.9279 58.9746C49.2743 56.8021 52.1855 57.3669 53.6629 58.5836C55.0968 59.6699 55.7051 61.4079 55.0098 62.8418Z" fill="#F76F59"></path><path d="M55.0096 62.842C54.7923 63.2766 54.4881 63.6676 54.0536 64.0152C52.4459 65.2753 51.2293 67.1003 50.3602 69.0122C49.5781 70.7068 47.5794 72.7055 45.7109 71.2716C45.7109 68.5342 46.7103 65.3188 48.6222 63.5807C50.8382 61.582 53.4453 61.8427 55.0096 62.842Z" fill="#FF6EA9"></path><path d="M28.1134 55.3248C26.723 55.3248 25.6367 54.8902 25.5498 54.8468C24.9849 54.6295 24.7242 53.9778 24.9415 53.4129C25.1587 52.848 25.8105 52.5873 26.3754 52.8046C26.4188 52.8046 28.8087 53.7605 30.1122 52.3266C31.8068 50.5451 30.0253 48.2422 29.9819 48.1553C29.5908 47.6773 29.6777 46.9821 30.1557 46.591C30.6336 46.1999 31.3289 46.2868 31.7199 46.7648C32.7628 48.1118 34.1098 51.2838 31.7199 53.804C30.6336 54.9772 29.2866 55.3248 28.1134 55.3248Z" fill="#1C3177"></path><path d="M44.2773 44.4183C42.0613 44.4183 40.1929 42.7672 40.0625 42.6803C39.5846 42.2892 39.5846 41.5505 39.9756 41.116C40.3667 40.6815 41.0619 40.638 41.5399 41.0291C41.5399 41.0291 43.5387 42.7237 45.016 42.0719C45.6678 41.7678 45.1898 40.4208 45.1464 40.3773C44.9291 39.8125 45.1898 39.1607 45.7981 38.9434C46.363 38.7262 47.0148 38.9869 47.232 39.5518C47.8838 41.1595 47.71 43.2886 45.9285 44.0707C45.3636 44.3314 44.7988 44.4183 44.2773 44.4183Z" fill="#1C3177"></path><path d="M22.2904 52.7175C22.247 52.7175 22.2035 52.7175 22.1601 52.7175C21.5518 52.6306 21.1173 52.1092 21.1607 51.5009C21.1607 51.3705 21.4649 48.7635 23.2898 46.1129C25.0713 43.4624 26.8963 42.5499 26.9832 42.5064C27.5481 42.2457 28.1999 42.463 28.4606 43.0278C28.7213 43.5927 28.504 44.2445 27.9391 44.5052C27.9391 44.5052 26.5487 45.2439 25.1148 47.3296C23.6374 49.5021 23.3767 51.6747 23.3767 51.7182C23.3333 52.283 22.8553 52.7175 22.2904 52.7175Z" fill="#1C3177"></path><path d="M38.1939 39.8559C37.8898 39.8559 37.5422 39.7255 37.3249 39.4648C36.9338 38.9868 37.0207 38.2916 37.4987 37.9006C37.6291 37.8136 38.6284 36.9881 40.41 36.4666C42.1915 35.9452 43.6688 35.9887 43.7123 35.9887C44.3206 35.9887 44.7986 36.5101 44.7986 37.1184C44.7986 37.7267 44.2337 38.2047 43.6688 38.2047C43.6688 38.2047 42.4956 38.1613 41.0617 38.5958C39.6713 39.0303 38.8892 39.6386 38.8892 39.6386C38.6719 39.769 38.4546 39.8559 38.1939 39.8559Z" fill="#1C3177"></path><path d="M180.237 159H3.12851C1.39045 159 0 157.609 0 155.871C0 154.133 1.39045 152.743 3.12851 152.743H180.237C181.975 152.743 183.365 154.133 183.365 155.871C183.365 157.566 181.975 159 180.237 159Z" fill="#99ADF9"></path><path d="M179.933 159H28.6783C26.9403 159 25.5498 157.609 25.5498 155.871C25.5498 154.133 26.9403 152.743 28.6783 152.743H179.933C181.671 152.743 183.062 154.133 183.062 155.871C183.105 157.566 181.671 159 179.933 159Z" fill="#789FEF"></path><path d="M159.25 132.234H78.4304C76.9965 132.234 75.8667 130.93 76.1275 129.496L84.7309 77.9194C84.9047 76.7897 85.9041 75.9641 87.0338 75.9641H167.854C169.288 75.9641 170.417 77.2677 170.157 78.7016L161.597 130.279C161.379 131.408 160.423 132.234 159.25 132.234Z" fill="#E1ECFF"></path><path d="M160.988 132.234H81.2111C79.7772 132.234 78.6475 130.93 78.9082 129.496L87.5116 77.9194C87.6854 76.7897 88.6848 75.9641 89.8145 75.9641H169.592C171.025 75.9641 172.155 77.2677 171.894 78.7016L163.291 130.279C163.117 131.408 162.118 132.234 160.988 132.234Z" fill="#C7DCF9"></path><path d="M152.558 126.716H91.6391C90.5094 126.716 89.6838 125.716 89.8576 124.63L96.4188 85.2627C96.5492 84.3937 97.3313 83.7419 98.2003 83.7419H159.076C160.206 83.7419 161.031 84.7413 160.857 85.8276L154.296 125.195C154.166 126.064 153.427 126.716 152.558 126.716Z" fill="#B7D4F7"></path><path d="M126.531 149.528H115.451C114.408 149.528 113.626 148.659 113.713 147.616L116.624 118.721C116.711 117.851 117.449 117.156 118.362 117.156H129.442C130.485 117.156 131.267 118.025 131.18 119.068L128.269 147.963C128.182 148.876 127.443 149.528 126.531 149.528Z" fill="#E1ECFF"></path><path d="M127.313 149.528H117.145C116.494 149.528 115.972 148.963 116.016 148.311L119.057 118.156C119.101 117.591 119.579 117.156 120.187 117.156H130.355C131.006 117.156 131.528 117.721 131.484 118.373L128.443 148.528C128.356 149.093 127.878 149.528 127.313 149.528Z" fill="#C7DCF9"></path><path d="M144.954 152.7H98.8089C97.8529 152.7 97.0708 151.917 97.0708 150.961V147.138C97.0708 146.182 97.8529 145.4 98.8089 145.4H144.954C145.91 145.4 146.692 146.182 146.692 147.138V150.961C146.692 151.917 145.91 152.7 144.954 152.7Z" fill="#E1ECFF"></path><path d="M145.91 152.7H102.502C101.503 152.7 100.677 151.874 100.677 150.875V147.225C100.677 146.225 101.503 145.4 102.502 145.4H145.91C146.91 145.4 147.735 146.225 147.735 147.225V150.875C147.692 151.874 146.91 152.7 145.91 152.7Z" fill="#C7DCF9"></path><path d="M178.325 68.7945C177.891 69.0987 177.326 69.3159 176.718 69.3159H135.091C133.005 69.3159 131.702 67.1434 132.658 65.2749L147.779 36.2059L153.341 25.5168C154.384 23.5615 157.165 23.5615 158.207 25.5168L179.151 65.2749C179.846 66.5785 179.368 68.0558 178.325 68.7945Z" fill="#99ADF9"></path><path d="M178.325 68.7945C177.891 69.0986 177.326 69.3159 176.718 69.3159H135.091C133.005 69.3159 131.702 67.1433 132.658 65.2749L147.779 36.2058L143.173 60.669C142.782 62.7547 144.216 64.71 146.345 64.9707L178.325 68.7945Z" fill="#789FEF"></path><path d="M153.862 53.7601L151.689 38.2045C151.602 37.683 152.037 37.2051 152.558 37.2051H158.728C159.25 37.2051 159.641 37.683 159.598 38.2045L157.425 53.7601C157.381 54.1946 156.99 54.4988 156.556 54.4988H154.688C154.253 54.5422 153.905 54.1946 153.862 53.7601Z" fill="#FFFFFF"></path><path d="M155.643 63.363C157.347 63.363 158.728 61.9818 158.728 60.2779C158.728 58.5741 157.347 57.1929 155.643 57.1929C153.939 57.1929 152.558 58.5741 152.558 60.2779C152.558 61.9818 153.939 63.363 155.643 63.363Z" fill="#FFFFFF"></path><path d="M42.8431 0.358475L43.6252 1.96618C43.7121 2.18344 43.9294 2.31379 44.1466 2.31379L45.8847 2.57451C46.4496 2.66141 46.6668 3.31318 46.2323 3.70424L44.9722 4.92089C44.7984 5.09469 44.755 5.31195 44.7984 5.52921L45.1026 7.26727C45.1895 7.78869 44.6246 8.2232 44.1466 7.96249L42.5824 7.13692C42.4086 7.05001 42.1479 7.05001 41.9741 7.13692L40.4098 7.96249C39.9318 8.2232 39.367 7.78869 39.4539 7.26727L39.758 5.52921C39.8015 5.31195 39.7146 5.09469 39.5842 4.92089L38.3241 3.70424C37.9331 3.31318 38.1503 2.66141 38.6717 2.57451L40.4098 2.31379C40.6271 2.27034 40.8009 2.13999 40.9312 1.96618L41.7134 0.358475C41.8872 -0.119492 42.5824 -0.119492 42.8431 0.358475Z" fill="#FEC272"></path><path d="M63.874 33.0774C62.2663 28.9495 60.6585 29.1233 59.5723 29.9054C58.5729 30.6441 58.3556 33.2077 59.5723 35.641C60.7889 38.0743 62.0055 37.9005 63.2222 37.2487C64.4388 36.597 64.6126 34.9893 63.874 33.0774Z" fill="#C7DCF9"></path><path d="M117.536 42.2024C110.845 45.7654 111.453 48.5029 113.018 50.154C114.495 51.7183 118.883 51.5445 122.751 49.0243C126.618 46.5041 126.14 44.4619 124.793 42.5066C123.446 40.5513 120.622 40.5078 117.536 42.2024Z" fill="#C7DCF9"></path></svg>