<svg width="32" height="32" viewBox="0 0 32 32" xmlns="http://www.w3.org/2000/svg" xmlns:xlink="http://www.w3.org/1999/xlink"><defs><rect id="path-1" x="0" y="0" width="32" height="32"></rect><rect id="path-1" x="0" y="0" width="32" height="32"></rect></defs><g id="Web-Admin" stroke="none" stroke-width="1" fill="none" fill-rule="evenodd"><g id="Chapter-details-forms-" transform="translate(-296.000000, -282.000000)" fill="none"><g id="Group-2" transform="translate(144.000000, 276.000000)" fill="none"><g id="Group-22676" transform="translate(143.000000, 0.000000)" fill="none"><g id="carbon:add" transform="translate(9.000000, 6.000000)" fill="none"><mask id="mask-2" fill="#FFFFFF"><use xlink:href="#path-1" fill="#FFFFFF"></use></mask><g id="carbon:add-(Background/Mask)" fill="none"></g><path d="M16,8 C15.4477153,8 15,8.44771525 15,9 L15,15 L15,15 L9,15 C8.44771525,15 8,15.4477153 8,16 C8,16.5522847 8.44771525,17 9,17 L15,17 L15,17 L15,23 C15,23.5522847 15.4477153,24 16,24 C16.5522847,24 17,23.5522847 17,23 L17,17 L17,17 L23,17 C23.5522847,17 24,16.5522847 24,16 C24,15.4477153 23.5522847,15 23,15 L17,15 L17,15 L17,9 C17,8.44771525 16.5522847,8 16,8 Z" id="Vector" fill="#FFFEFE" fill-rule="nonzero" mask="url(#mask-2)"></path></g></g></g></g></g></svg>