<svg xmlns:xlink="http://www.w3.org/1999/xlink" xmlns="http://www.w3.org/2000/svg" version="1.0" width="360" height="360" viewBox="0 0 360.000000 360.000000" preserveAspectRatio="xMidYMid meet">

<g transform="translate(0.000000,360.000000) scale(0.100000,-0.100000)" fill="#A1A1A1" stroke="none">
<path d="M1681 3590 c-97 -14 -196 -46 -290 -96 -592 -313 -629 -1146 -67 -1513 287 -187 670 -186 961 4 88 57 212 188 267 280 97 164 141 366 119 547 -39 316 -219 569 -504 704 -137 65 -335 95 -486 74z"/>
<path d="M1024 1746 c-421 -207 -735 -577 -893 -1051 -40 -121 -84 -317 -95 -432 l-7 -61 108 -25 c581 -137 1285 -194 2048 -165 164 6 439 27 570 43 257 31 508 74 708 121 l108 26 -7 61 c-11 115 -55 311 -95 432 -131 393 -374 721 -694 937 -83 56 -252 147 -302 162 -15 5 -56 -10 -145 -54 -189 -92 -377 -132 -587 -123 -172 7 -373 64 -522 148 -33 19 -67 35 -73 35 -7 0 -62 -24 -122 -54z"/>
</g>
</svg>