<svg width="21" height="24" viewBox="0 0 21 24" xmlns="http://www.w3.org/2000/svg" xmlns:xlink="http://www.w3.org/1999/xlink" class="delete-icon icon"><title>Remove</title><g id="Web-Admin" stroke="none" stroke-width="1" fill="none" fill-rule="evenodd"><g id="Chapter-details-forms-" transform="translate(-1228.000000, -389.000000)" fill="#5624D0" fill-rule="nonzero"><g id="Group-5" transform="translate(168.000000, 376.000000)" fill="#5624D0"><g id="Group-4" transform="translate(17.000000, 0.000000)" fill="#5624D0"><g id="delete_FILL0_wght400_GRAD0_opsz48-(2)" transform="translate(1043.000000, 13.000000)" fill="#5624D0"><path d="M3.3140625,24 C2.7671875,24 2.30234375,23.8055556 1.91953125,23.4166667 C1.53671875,23.0277778 1.3453125,22.5555556 1.3453125,22 L1.3453125,3 L0,3 L0,1 L6.16875,1 L6.16875,0 L14.83125,0 L14.83125,1 L21,1 L21,3 L19.6546875,3 L19.6546875,22 C19.6546875,22.5333333 19.4578125,23 19.0640625,23.4 C18.6703125,23.8 18.2109375,24 17.6859375,24 L3.3140625,24 Z M17.6859375,3 L3.3140625,3 L3.3140625,22 L17.6859375,22 L17.6859375,3 Z M6.7921875,19.1333333 L8.7609375,19.1333333 L8.7609375,5.83333333 L6.7921875,5.83333333 L6.7921875,19.1333333 Z M12.2390625,19.1333333 L14.2078125,19.1333333 L14.2078125,5.83333333 L12.2390625,5.83333333 L12.2390625,19.1333333 Z M3.3140625,3 L3.3140625,22 L3.3140625,3 Z" id="Shape" fill="#5624D0"></path></g></g></g></g></g></svg>