<svg xmlns:xlink="http://www.w3.org/1999/xlink" width="24" height="24" viewBox="0 0 24 24" fill="none" xmlns="http://www.w3.org/2000/svg"><title>Like</title><path d="M11.3177 20.0859L11.3144 20.0829L9.99 18.8584C9.98998 18.8584 9.98995 18.8583 9.98993 18.8583C7.9336 16.9512 6.15484 15.1349 4.65207 13.4091C3.19683 11.738 2.5 10.0297 2.5 8.275C2.5 6.89995 2.95677 5.77534 3.86605 4.86605C4.77649 3.95561 5.89333 3.5 7.25 3.5C8.01693 3.5 8.78376 3.68359 9.55499 4.0615C10.2966 4.42491 10.9774 5.03152 11.5897 5.91075L11.9758 6.46512L12.3932 5.93391C13.0969 5.03822 13.8034 4.42218 14.5061 4.05588C15.2195 3.684 15.9654 3.5 16.75 3.5C18.1067 3.5 19.2235 3.95561 20.1339 4.86605C21.0432 5.77534 21.5 6.89995 21.5 8.275C21.5 10.0297 20.8032 11.738 19.3479 13.4091C17.8452 15.1348 16.0666 16.9511 14.0104 18.858C14.0103 18.8582 14.0101 18.8583 14.01 18.8584L12.6856 20.0829L12.6856 20.0828L12.6823 20.0859C12.4946 20.2626 12.2766 20.35 12 20.35C11.7234 20.35 11.5054 20.2626 11.3177 20.0859Z" stroke="#000000" fill="none"></path></svg>