<svg xmlns:xlink="http://www.w3.org/1999/xlink" width="84" height="27" viewBox="0 0 84 27" fill="none" xmlns="http://www.w3.org/2000/svg"><path d="M12.925 14.95C12.925 8.8 3.975 10.75 3.975 7.25C3.975 5.825 5 5.15 6.375 5.2C7.875 5.225 8.8 6.125 8.875 7.275H12.725C12.5 4.125 10.05 2.3 6.475 2.3C2.875 2.3 0.325 4.2 0.325 7.35C0.3 13.675 9.3 11.4 9.3 15.175C9.3 16.425 8.325 17.3 6.675 17.3C5.05 17.3 4.125 16.375 4.025 14.975H0.275C0.325 18.275 3.125 20.175 6.75 20.175C10.725 20.175 12.925 17.7 12.925 14.95ZM15.9594 20H19.4594V14.1L24.1594 20H28.7094L22.5594 13.1L28.6594 6.15H24.1094L19.4594 12.025V1.5H15.9594V20ZM30.559 20H34.059V6.15H30.559V20ZM32.334 4.5C33.559 4.5 34.484 3.6 34.484 2.45C34.484 1.3 33.559 0.399999 32.334 0.399999C31.084 0.399999 30.184 1.3 30.184 2.45C30.184 3.6 31.084 4.5 32.334 4.5ZM37.517 20H41.017V1.5H37.517V20ZM44.475 20H47.975V1.5H44.475V20Z" fill="#222222"></path><path d="M51.383 13.325C51.383 17.925 54.533 20.175 58.358 20.175C62.183 20.175 65.483 17.925 65.483 13.325V2.55H61.958V13.35C61.958 15.75 60.658 17 58.408 17C56.183 17 54.883 15.75 54.883 13.35V2.55H51.383V13.325ZM72.3646 8.15V6.15H68.8646V26.6H72.3646V18.025C73.2146 19.15 74.7646 20.225 76.9396 20.225C80.4896 20.225 83.2646 17.35 83.2646 13.025C83.2646 8.7 80.4896 5.925 76.9396 5.925C74.7896 5.925 73.1896 6.975 72.3646 8.15ZM79.6896 13.025C79.6896 15.65 77.9146 17.15 76.0146 17.15C74.1396 17.15 72.3646 15.7 72.3646 13.075C72.3646 10.45 74.1396 9 76.0146 9C77.9146 9 79.6896 10.4 79.6896 13.025Z" fill="#5624D0"></path></svg>