<svg width="20px" height="19px" viewBox="0 0 20 19" xmlns="http://www.w3.org/2000/svg" xmlns:xlink="http://www.w3.org/1999/xlink" class="star">
  <g id="Web-Student" stroke="none" stroke-width="1" fill="none" fill-rule="evenodd">
      <g id="Filled-dual-tone" fill-rule="nonzero"><g id="Group-29-Copy" fill="#FFC850">
          <path d="M10.0001111,0 C10.3107794,0 10.5887808,0.171984064 10.7263371,0.448971253 L13.342573,5.72255974 C13.3645731,5.76677158 13.4070178,5.79727775 13.4559069,5.80435164 L19.3061596,6.65012418 C19.6134946,6.69455708 19.8637181,6.90456333 19.9597186,7.19835101 C20.0557191,7.4921387 19.9772743,7.80847443 19.7548286,8.02422822 L15.5216955,12.1290767 C15.4861397,12.1635619 15.4699174,12.2130792 15.4783619,12.2614911 L16.4779227,18.0574425 C16.5303674,18.3618411 16.4070334,18.6638079 16.155921,18.8452975 C15.9050308,19.0267872 15.5781402,19.0502194 15.3028054,18.9069731 L10.0701115,16.170039 C10.0483336,16.158765 10.0243335,16.1530174 10.0003333,16.1530174 L9.999,16.152 C9.98788883,16.1530174 9.97588876,16.1544543 9.96416648,16.1573005 L9.93011075,16.170039 L4.69741679,18.9069731 C4.42208202,19.0502194 4.09519143,19.0267872 3.84430123,18.8452975 C3.59318881,18.6638079 3.46985484,18.3618411 3.52229955,18.0574425 L4.5216381,12.2614911 C4.53008259,12.2130792 4.51386028,12.1635619 4.47830454,12.1290767 L0.245171353,8.02422822 C0.0227257484,7.80847443 -0.0557191052,7.4921387 0.0402813955,7.19835101 C0.136281896,6.90456333 0.386505423,6.69455708 0.693840359,6.65012418 L6.54431531,5.80435164 C6.59320446,5.79727775 6.63564912,5.76677158 6.65764924,5.72255974 L9.2738851,0.448971253 C9.41144138,0.171984064 9.68944282,0 10.0001111,0 Z" id="Combined-Shape"></path></g><path d="M10.0001111,0 C10.0001111,0 10.0001111,0 10.0001111,0 C10.3107794,0 10.5887808,0.171984064 10.7263371,0.448971253 L13.342573,5.72255974 C13.3645731,5.76677158 13.4070178,5.79727775 13.4559069,5.80435164 L19.3061596,6.65012418 C19.6134946,6.69455708 19.8637181,6.90456333 19.9597186,7.19835101 C20.0557191,7.4921387 19.9772743,7.80847443 19.7548286,8.02422822 L15.5216955,12.1290767 C15.4861397,12.1635619 15.4699174,12.2130792 15.4783619,12.2614911 L16.4779227,18.0574425 C16.5303674,18.3618411 16.4070334,18.6638079 16.155921,18.8452975 C15.9050308,19.0267872 15.5781402,19.0502194 15.3028054,18.9069731 L10.0701115,16.170039 C10.0483336,16.158765 10.0243335,16.1530174 10.0003333,16.1530174 C8.24010193,11.6208615 8.63321509,6.0506116 10.0001111,0 Z" id="Path" fill="#FFDC64"></path>
      </g>
  </g>
</svg>
