<svg width="67" height="73" viewBox="0 0 67 73" xmlns="http://www.w3.org/2000/svg" xmlns:xlink="http://www.w3.org/1999/xlink"><g id="Mobile-Student" stroke="none" stroke-width="1" fill="none" fill-rule="evenodd"><g id="Group-8" transform="translate(5.007008, 1.000000)" fill="none"><g id="Group-5" transform="translate(30.996852, 36.697635) rotate(2.000000) translate(-30.996852, -36.697635) translate(1.170249, 2.645034)" fill="none"><path d="M8.47675774,0.710110295 C8.61091492,0.709723552 8.71998433,0.81816592 8.72037107,0.952323105 C8.72037241,0.952787217 8.72037242,0.953251333 8.72037109,0.953715446 L8.64499599,27.4096149 C8.64461092,27.5447692 8.53514481,27.654239 8.39999052,27.6546286 C8.26583333,27.6550154 8.15676393,27.546573 8.15637718,27.4124158 C8.15637585,27.4119517 8.15637584,27.4114876 8.15637716,27.4110235 L8.23175227,0.955124019 C8.23213733,0.819969715 8.34160345,0.710499913 8.47675774,0.710110295 Z" id="Rectangle" fill="#232935" transform="translate(8.438374, 14.182369) rotate(-13.000000) translate(-8.438374, -14.182369) "></path><path d="M50.3676332,-0.0575292235 C50.502021,-0.0577729166 50.6111613,0.0509723023 50.611405,0.185360021 C50.6114055,0.185652348 50.6114055,0.185944675 50.611405,0.186237001 L50.5653387,25.9113832 C50.5650969,26.0463983 50.4557074,26.1557902 50.3206923,26.1560351 C50.1863046,26.1562788 50.0771643,26.0475335 50.0769206,25.9131458 C50.0769201,25.9128535 50.0769201,25.9125612 50.0769206,25.9122689 L50.1229869,0.187122678 C50.1232286,0.0521075985 50.2326182,-0.0572843928 50.3676332,-0.0575292235 Z" id="Rectangle-Copy" fill="#232935" transform="translate(50.344163, 13.049253) scale(-1, 1) rotate(-8.000000) translate(-50.344163, -13.049253) "></path><g id="Group-4" transform="translate(0.000000, 20.051367)" fill="none"><ellipse id="Oval" fill="#232935" cx="21.8003252" cy="11.8891595" rx="2.59511472" ry="2.63195133"></ellipse><g id="Group-2" transform="translate(18.041883, 6.443743)" fill="none"><g id="Group" transform="translate(0.000000, 0.000000)" fill="none"><polygon id="Rectangle" fill="#FFC7A9" points="5.22245838 25.2144781 17.1595061 25.2144781 21.1696081 36.8473186 3.07752012 36.8473186"></polygon><ellipse id="Oval" fill="#FFC7A9" cx="22.3819645" cy="13.6977791" rx="1.95842189" ry="2.85884369"></ellipse><ellipse id="Oval-Copy-8" fill="#FFC7A9" cx="1.95842189" cy="13.6977791" rx="1.95842189" ry="2.85884369"></ellipse><path d="M11.3466835,1.47591747 L13.1802193,1.47591747 C18.0477302,1.47591747 22.0351792,5.34201425 22.1855679,10.2072014 L22.5611519,22.3576262 C22.7148891,27.3311429 18.8076859,31.4876034 13.8341693,31.6413407 C13.7414083,31.6442081 13.6486086,31.645642 13.5558033,31.645642 L10.9710995,31.645642 C5.99520724,31.645642 1.9614496,27.6118844 1.9614496,22.6359921 C1.9614496,22.5431869 1.96288353,22.4503871 1.96575089,22.3576262 L2.34133488,10.2072014 C2.49172357,5.34201425 6.47917256,1.47591747 11.3466835,1.47591747 Z" id="Rectangle" fill="#232935"></path><path d="M5.80044719,9.12074231 L4.64163626,17.8842656 C4.53202299,18.7230354 5.12348546,19.4915714 5.96230701,19.600787 C6.20086018,19.6318469 6.44337526,19.6062782 6.67002442,19.5256384 C8.79563284,18.7785531 10.7689097,18.4050105 12.589855,18.4050105 C14.3647618,18.4050105 16.1332808,18.7599035 17.895412,19.4696895 C18.680023,19.785819 19.5716143,19.4043214 19.8862305,18.6191041 C19.9585356,18.4386455 19.9958251,18.2460717 19.9961092,18.0516669 L19.9961092,9.47506501 C19.9961092,7.98229734 18.7859819,6.77217005 17.2932143,6.77217005 L8.48001741,6.77217005 C7.12420558,6.77217005 5.97818067,7.7766305 5.80044719,9.12074231 Z" id="Path-2" fill="#FFC7A9"></path><ellipse id="Oval" fill="#232935" cx="16.2269242" cy="13.2979098" rx="1" ry="1"></ellipse><ellipse id="Oval-Copy-6" fill="#232935" cx="8.95278579" cy="13.2979098" rx="1" ry="1"></ellipse><path d="M7.55391301,11.8319828 C8.39217809,11.3219168 9.46099196,11.3959724 10.2209021,12.016772 L10.6314331,12.3521504 L10.6314331,12.3521504" id="Path-4" stroke="#232935" stroke-width="0.596455px" stroke-linecap="round" fill="none"></path><path d="M15.2943424,11.8319828 C16.1326075,11.3219168 17.2014213,11.3959724 17.9613315,12.016772 L18.3718625,12.3521504 L18.3718625,12.3521504" id="Path-4-Copy" stroke="#232935" stroke-width="0.596455px" stroke-linecap="round" fill="none"></path><path d="M10.4449168,20.4856812 C11.1992967,21.5672887 12.6748146,21.8570775 13.7822321,21.1411233 L15.5274879,20.0128015 L15.5274879,20.0128015 L14.1066744,20.5479891 C12.9226389,20.993988 11.6130931,20.9717049 10.4449168,20.4856812 L10.4449168,20.4856812 L10.4449168,20.4856812 Z" id="Path-7" fill="#FFFFFF"></path><path d="M3.91684378,5.82641066 C5.40897475,7.33962568 8.19117728,8.0962332 12.2634514,8.0962332 C18.3718625,8.0962332 20.143768,6.77217005 22.8482554,3.17828437 C25.5527428,-0.415601309 22.8948845,2.98913249 14.6881642,0.57744605 C9.21701732,-1.03034491 5.62657718,0.719309958 3.91684378,5.82641066 Z" id="Path-8" fill="#232935"></path><path d="M7.55391301,4.02946782 C7.74042938,2.23252498 9.07713004,1.63354403 11.564015,2.23252498 C14.0508999,2.83150593 16.0714939,3.09947109 17.625797,3.03642046" id="Path-9" stroke="#FFFFFF" stroke-width="0.596455px" opacity="0.270310901" stroke-linecap="round" fill="none"></path></g><g id="Group-16" transform="translate(0.000000, 0.000000)" fill="none"></g></g><path d="M46.2144941,43.0465113 C49.0690004,41.0047569 54.0711004,37.1797576 54.3743591,25.8267939 C54.6776178,14.4738302 53.3366881,14.1733185 49.8096668,8.07736788" id="Path-10" stroke="#FFC7A9" stroke-width="9.00965px" fill="none"></path><polygon id="Path-24" fill="#232935" opacity="0.075965518" points="48.7251001 34.0558242 57.4736944 35.9522509 56.7005628 38.3021711"></polygon><path d="M0,44.1977293 C2.58132871,42.3512929 12.0266955,38.6913621 13.1951289,28.8607077 C13.9507298,22.5034331 6.75029649,15.3661144 2.53314221,8.07736788" id="Path-10-Copy" stroke="#FFC7A9" stroke-width="9.00965px" transform="translate(6.625091, 26.137549) scale(-1, 1) translate(-6.625091, -26.137549) " fill="none"></path><polygon id="Path-25" fill="#232935" opacity="0.075965518" points="8.01036879 35.732874 9.31248514 37.464394 3.65641723 41.958101 3.65641723 41.2572476"></polygon><path d="M10.0399074,35.6080358 L0.636717145,43.9263601 L0.636717145,43.9263601 L7.53095432,48.0538345 L58.3638894,46.2553471 L59.6532054,37.4826172 L48.0136875,33.8898714 C47.5937868,33.7602616 47.1388741,33.9251351 46.8995185,34.2936785 L43.975216,38.79632 C43.478965,39.5604134 42.4572542,39.7775425 41.6931608,39.2812916 C41.4409013,39.1174582 41.2382358,38.8877733 41.1070838,38.617079 L40.4607739,37.2831115 C40.2615426,36.8769933 39.7711979,36.7081517 39.3646241,36.9064488 C39.2367832,36.9688003 39.127383,37.0633686 39.0485735,37.1817867 C36.3224004,41.1485426 33.5111314,43.1849676 30.6147665,43.2910616 C27.6705979,43.3989066 24.4166952,41.5203003 20.8530585,37.6552428 C20.5467566,37.3223704 20.028562,37.3018804 19.6963115,37.6088553 C19.6124668,37.6863215 19.5457409,37.7804586 19.5011108,37.8855284 L19.026237,38.9801068 C18.6281803,39.8976226 17.561698,40.3187275 16.6441822,39.9206707 C16.4739676,39.8468245 16.3161127,39.747258 16.1761451,39.6254576 L11.5524188,35.6018725 C11.1181712,35.2239885 10.4710609,35.2266254 10.0399074,35.6080358 Z" id="Path-11" fill="#8DD484" fill-rule="nonzero"></path><g id="Path-14-+-Path-14-Copy-+-Path-14-Copy-2-Mask" transform="translate(42.919190, 0.000000)" fill="none"></g></g><path d="M52.036707,18.9769439 C54.7320086,21.2375436 55.6361251,23.7393973 54.7490564,26.4825049" id="Path-12" stroke="#FFC7A9" stroke-width="1.72002px" stroke-linecap="round" transform="translate(53.557624, 22.729724) scale(-1, 1) rotate(15.000000) translate(-53.557624, -22.729724) " fill="none"></path><path d="M4.09070446,22.4408114 C6.79144777,24.7027041 7.69959047,27.2033216 6.81513256,29.942664" id="Path-12-Copy" stroke="#FFC7A9" stroke-width="1.72002px" stroke-linecap="round" transform="translate(5.616563, 26.191738) rotate(22.000000) translate(-5.616563, -26.191738) " fill="none"></path><path d="M6.75541552,19.944814 C14.6518969,18.0110114 22.3219412,17.0432554 29.7655484,17.0415459 C37.289335,17.0398181 44.8132411,17.5315488 52.3372666,18.5167381 L52.337221,18.5171008 C52.6513889,18.5566515 52.9381345,18.3340301 52.9776851,18.0198622 C52.9945186,17.8861467 52.9637097,17.750775 52.8906676,17.6375141 C50.6651722,14.1936866 50.1951868,12.0826802 51.4782602,11.3060755 C52.8345433,10.4851593 53.5381788,7.87972518 53.5891667,3.48977304 L53.5891893,3.48977321 C53.5913708,3.19746772 53.3732961,2.95032181 53.082993,2.91609656 C44.2812722,1.86002908 36.1579821,1.33277856 28.7131062,1.3344856 C21.1869435,1.33621675 13.4066312,2.41946896 5.37216935,4.58424224 L5.37230271,4.58473085 C5.24096979,4.6205757 5.12667675,4.70198317 5.04987433,4.81438681 C3.54062351,7.04051351 3.58117858,9.84012301 5.17141354,13.2131292 C6.39166621,15.8013756 6.69950907,17.7832683 6.09494213,19.1588075 L6.09436317,19.1585547 C5.96768346,19.4487581 6.10024559,19.7867087 6.39044898,19.9133884 C6.50538775,19.9635615 6.63360721,19.9746642 6.75545961,19.9449951 Z" id="Path-13" fill="#FFFFFF" transform="translate(28.769839, 10.839900) rotate(-1.000000) translate(-28.769839, -10.839900) "></path><path d="M8.47675774,0.710110295 C8.61091492,0.709723552 8.71998433,0.81816592 8.72037107,0.952323105 C8.72037241,0.952787217 8.72037242,0.953251333 8.72037109,0.953715446 L8.64499599,27.4096149 C8.64461092,27.5447692 8.53514481,27.654239 8.39999052,27.6546286 C8.26583333,27.6550154 8.15676393,27.546573 8.15637718,27.4124158 C8.15637585,27.4119517 8.15637584,27.4114876 8.15637716,27.4110235 L8.23175227,0.955124019 C8.23213733,0.819969715 8.34160345,0.710499913 8.47675774,0.710110295 Z" id="Rectangle" fill="#232935" opacity="0.0996769496" transform="translate(8.438374, 14.182369) rotate(-13.000000) translate(-8.438374, -14.182369) "></path><path d="M50.3676332,-0.0575292235 C50.502021,-0.0577729166 50.6111613,0.0509723023 50.611405,0.185360021 C50.6114055,0.185652348 50.6114055,0.185944675 50.611405,0.186237001 L50.5653387,25.9113832 C50.5650969,26.0463983 50.4557074,26.1557902 50.3206923,26.1560351 C50.1863046,26.1562788 50.0771643,26.0475335 50.0769206,25.9131458 C50.0769201,25.9128535 50.0769201,25.9125612 50.0769206,25.9122689 L50.1229869,0.187122678 C50.1232286,0.0521075985 50.2326182,-0.0572843928 50.3676332,-0.0575292235 Z" id="Rectangle-Copy" fill="#232935" opacity="0.0733039493" transform="translate(50.344163, 13.049253) scale(-1, 1) rotate(-8.000000) translate(-50.344163, -13.049253) "></path><ellipse id="Mask" fill="#FFC7A9" cx="48.6463395" cy="25.8598115" rx="5.72714974" ry="5.80844432"></ellipse><ellipse id="Oval-Copy" fill="#FFC7A9" cx="11.7778131" cy="26.4951101" rx="5.72714974" ry="5.80844432"></ellipse><path d="M13.6722217,31.9246478 C12.7227619,31.9246478 11.8004295,31.9246478 10.9052245,31.9246478 C10.0100195,31.9246478 10.0100195,33.2988701 10.9052245,36.0473147 L13.6722217,31.9246478 Z" id="Path-14" fill="#232935" opacity="0.075965518"></path><path d="M46.4285862,31.2237945 C47.4594283,31.5536078 48.3003785,31.4848967 48.9514367,31.0176611 C49.6024948,30.5504255 49.4126029,32.1445234 48.3817607,35.7999547 C47.9748494,34.6181235 47.662884,33.8073324 47.4458646,33.3675812 C47.2288452,32.9278301 46.8897524,32.2132345 46.4285862,31.2237945 Z" id="Path-15" fill="#232935" opacity="0.075965518"></path></g><g id="Group-15" transform="translate(11.795663, 6.864341)" fill-rule="nonzero" fill="none"><g id="Group-6-Copy" opacity="0.215233939" transform="translate(0.000000, 0.659627)" stroke="#000000" stroke-width="0.596455px" fill="none"><path d="M1.53482749,7.52780565 L0.491692745,3.61573153 C0.476000094,3.55978942 0.46821893,3.50249671 0.468347642,3.44385341 C0.468657286,3.30524196 0.506535254,3.1645468 0.581983156,3.02176792 C0.657431057,2.87898905 0.758520945,2.76347479 0.885252818,2.67522516 C1.00143999,2.58699925 1.14128462,2.52937442 1.30478669,2.50235067 C1.8478387,2.50112893 2.19258523,2.76691247 2.33902627,3.29970129 L3.02170988,5.70919281 L3.71526946,3.22463411 C3.82153985,2.85387783 3.99736084,2.62157582 4.24273243,2.5277281 C4.34299,2.49018427 4.44847846,2.4712878 4.5591978,2.47103666 C4.74636621,2.47061763 4.91164253,2.53488639 5.05502675,2.66384499 C5.19841098,2.79280359 5.30278575,2.97849377 5.36815106,3.22091553 L6.05067473,5.70237837 L6.74407436,3.289791 C6.8928849,2.75633794 7.23881617,2.48900054 7.78186818,2.48777881 C7.9320946,2.50343438 8.07300259,2.56042759 8.20459216,2.65875842 C8.33356332,2.74909838 8.43413488,2.86682453 8.50630684,3.01193689 C8.5784788,3.15704925 8.61441373,3.29757835 8.61411351,3.43352419 C8.61397537,3.4948331 8.60594541,3.54949579 8.59002174,3.59751226 L7.52950676,7.5063223 C7.43383438,7.85306442 7.28035276,8.11597046 7.06906188,8.29504044 C6.85777101,8.47411041 6.60054552,8.56398642 6.29738542,8.56466845 C6.02586534,8.56261372 5.7848375,8.48118904 5.5743019,8.32039441 C5.3637663,8.15959979 5.21399453,7.93935906 5.12498657,7.65967221 L4.53605013,5.7697601 L3.9426444,7.67032897 C3.88953587,7.84371189 3.80416973,8.00117383 3.68654599,8.1427148 C3.56892225,8.28425576 3.43094517,8.39118983 3.27261474,8.463517 C3.11428431,8.53584418 2.94548323,8.57487501 2.7662115,8.58061318 C2.57113456,8.58104839 2.39130301,8.54213549 2.22671683,8.46387083 C2.06213066,8.38560616 1.92267404,8.26863388 1.80834697,8.112954 C1.69401991,7.95727411 1.60284675,7.76222466 1.53482749,7.52780565 Z" id="Path" opacity="0.460242862" transform="translate(4.541231, 5.525825) rotate(-10.000000) translate(-4.541231, -5.525825) " stroke="#000000" fill="none" stroke-width="0.596455px"></path><path d="M13.0306909,6.30036584 C13.0306909,6.56800988 12.9734544,6.75669893 12.8589815,6.86643299 C12.7445085,6.97616704 12.554164,7.03103407 12.2879478,7.03103407 L10.1595495,7.03103407 C10.1701982,7.04709271 10.2194482,7.0992833 10.3072995,7.18760584 C10.3845022,7.24648752 10.4583772,7.28997968 10.5289245,7.31808231 C10.5994718,7.34618493 10.694644,7.36893467 10.8144413,7.38633154 C10.9342386,7.4037284 11.0793264,7.41242683 11.2497048,7.41242683 C11.4147588,7.40439751 11.6237385,7.36558912 11.8766438,7.29600167 C12.0709816,7.24782574 12.208083,7.22373778 12.2879478,7.22373778 C12.5035829,7.22373778 12.6759579,7.28663413 12.8050727,7.41242683 C12.9341875,7.53821953 12.998745,7.69345307 12.998745,7.87812746 C12.998745,7.94503847 12.9934206,7.99722906 12.982772,8.03469922 C12.9534882,8.13640396 12.9075659,8.22740293 12.8450051,8.30769614 C12.7824443,8.38798935 12.6999173,8.45958413 12.5974241,8.52248048 C12.4949309,8.58537683 12.3505086,8.65028051 12.1641573,8.71719152 C11.9352114,8.78677897 11.7009412,8.83629312 11.4613466,8.86573396 C11.2936304,8.88714549 11.1139345,8.89785125 10.9222589,8.89785125 C10.5255968,8.89785125 10.1615462,8.83963867 9.83010704,8.72321351 C9.49866792,8.60678836 9.21448216,8.44151816 8.97754977,8.22740293 C8.74061738,8.0132877 8.56092147,7.7617023 8.43846203,7.47264674 C8.3160026,7.18359118 8.25477288,6.86777121 8.25477288,6.52518684 C8.26275936,6.22274907 8.32997895,5.9330244 8.45643162,5.65601282 C8.5828843,5.37900124 8.75326265,5.14079804 8.96756666,4.94140323 C9.18187068,4.74200842 9.43677266,4.58476755 9.7322726,4.46968061 C10.0277725,4.35459368 10.3472319,4.29705021 10.6906508,4.29705021 C11.1458804,4.30507953 11.5518601,4.41079893 11.9085898,4.6142084 C12.126887,4.74267753 12.3192282,4.90125663 12.4856133,5.08994568 C12.6519984,5.27863472 12.7824443,5.47802953 12.8769511,5.6881301 C12.9714578,5.89823068 13.0227044,6.10230926 13.0306909,6.30036584 Z M10.1755225,6.13576476 L11.1498737,6.13576476 C11.1498737,6.10364748 11.1472115,6.07688307 11.1418872,6.05547155 C11.1019548,5.79050395 10.9169345,5.65802015 10.5868265,5.65802015 C10.3924887,5.70619608 10.2607117,5.84135632 10.1914955,6.06350087 C10.1808468,6.09561815 10.1755225,6.11970612 10.1755225,6.13576476 Z" id="Shape" opacity="0.460242862" transform="translate(10.642732, 6.597451) rotate(-11.000000) translate(-10.642732, -6.597451) " stroke="#000000" fill="none" stroke-width="0.596455px"></path><path d="M13.9991473,6.33482961 C13.8207621,6.15249377 13.7315695,5.93261821 13.7315695,5.67520291 L13.7315695,0.904975658 C13.7315695,0.744091097 13.7722309,0.593932173 13.8535535,0.454498886 C13.9348762,0.3150656 14.0450552,0.204457464 14.1840908,0.122674478 C14.3231263,0.0408914927 14.47659,0 14.6444819,0 C14.8045039,0.00268140936 14.9520651,0.0462543114 15.0871657,0.130718706 C15.2222662,0.215183101 15.3285103,0.327131942 15.405898,0.466565228 C15.4832857,0.605998515 15.5219795,0.757498144 15.5219795,0.921064115 L15.5219795,5.66715868 C15.5219795,5.9299368 15.4367219,6.15249377 15.2662067,6.33482961 C15.0825749,6.50912122 14.8700867,6.59626702 14.628742,6.59626702 C14.3873974,6.59626702 14.1775325,6.50912122 13.9991473,6.33482961 Z" id="Path" opacity="0.460242862" stroke="#000000" fill="none" stroke-width="0.596455px"></path><path d="M16.4562827,6.69604227 C16.1562482,6.27518638 16.0068653,5.82475615 16.0081261,5.34475159 C16.0113977,5.10076436 16.0618064,4.8533361 16.1593602,4.6024668 C16.2569141,4.3515975 16.3897554,4.12516425 16.5578841,3.92316705 C16.6813269,3.78493596 16.7968401,3.67457144 16.9044236,3.59207351 C17.1143391,3.43239558 17.343788,3.31310748 17.5927701,3.23420922 C17.8417522,3.15531096 18.1194364,3.11545204 18.4258228,3.11460461 C18.5934188,3.11418414 18.7204112,3.11914832 18.8067998,3.12952499 C19.7021455,3.21994786 20.1489597,3.59002425 20.1472423,4.23975419 C20.1152994,4.4360832 20.0271563,4.59410943 19.882813,4.71383285 C19.7384698,4.83355627 19.5602413,4.89370169 19.3481276,4.89426909 C19.3088473,4.89437417 19.2630343,4.88919283 19.2106886,4.8787251 L19.1714293,4.8708743 L18.9633698,4.82369593 L18.8573761,4.800112 L18.6885654,4.76476238 C18.6414571,4.75428063 18.5694572,4.74916935 18.4725657,4.74942853 C18.2630707,4.74998893 18.0953188,4.80944333 17.9693099,4.92779174 C17.8433009,5.04614015 17.7800336,5.20476282 17.7795079,5.40365974 C17.7870485,5.52297687 17.8155894,5.62301127 17.8651307,5.70376292 C17.914672,5.78451457 17.989117,5.85525483 18.0884659,5.9159837 C18.1956709,5.97669155 18.3147406,6.00687035 18.4456749,6.0065201 C18.5163795,6.00633097 18.6015079,5.99814743 18.70106,5.98196949 L18.7246282,5.98190644 L19.0076252,5.91352495 C19.0836162,5.8947581 19.1857801,5.88122511 19.3141168,5.87292599 C19.5759855,5.87222549 19.7819969,5.95123262 19.9321508,6.10994737 C20.0823047,6.26866211 20.1570137,6.48724733 20.1562831,6.76570302 C20.1322469,6.94079535 20.057213,7.09281964 19.931176,7.22177589 C19.805139,7.35073213 19.6176383,7.45134443 19.3686737,7.5236128 C19.1197091,7.59588116 18.8132281,7.63250219 18.4492305,7.63347588 C18.0119308,7.62668983 17.6252388,7.5448511 17.2891545,7.38795968 C16.9530703,7.23106827 16.6754463,7.00042913 16.4562827,6.69604227 Z" id="Path" opacity="0.460242862" transform="translate(18.082205, 5.374040) rotate(-12.000000) translate(-18.082205, -5.374040) " stroke="#000000" fill="none" stroke-width="0.596455px"></path><path d="M23.2656141,8.43972154 C22.8242752,8.43972154 22.4216847,8.33634528 22.0578428,8.12959276 C21.6940008,7.92284024 21.4069991,7.64157627 21.1968377,7.28580083 C20.9866763,6.93002539 20.8802821,6.54135751 20.8776551,6.11979717 C20.8776551,5.69823684 20.982079,5.30554131 21.1909269,4.94171058 C21.3997748,4.57787985 21.6867765,4.28990313 22.051932,4.07778042 C22.4170874,3.8656577 22.8216481,3.75959634 23.2656141,3.75959634 C23.5808562,3.75959634 23.8737687,3.81128447 24.1443515,3.91466073 C24.4149343,4.01803699 24.6579334,4.16504609 24.8733489,4.35568802 C25.0046998,4.47114722 25.1196318,4.59734681 25.218145,4.73428679 C25.3166581,4.87122677 25.3980957,5.01353694 25.4624576,5.16121732 C25.5268195,5.30889769 25.5747626,5.46194825 25.6062868,5.62036901 C25.637811,5.77878977 25.6535731,5.93721054 25.6535731,6.0956313 C25.6535731,6.36145596 25.6095706,6.62191043 25.5215655,6.87699471 C25.4335604,7.13207899 25.3015528,7.36635376 25.1255426,7.57981902 C24.9495324,7.79328428 24.7380575,7.97251455 24.4911178,8.11750982 C24.1207083,8.33231763 23.7122071,8.43972154 23.2656141,8.43972154 Z M22.6351299,6.11174188 C22.6351299,6.33997518 22.696208,6.52658947 22.8183644,6.67158474 C22.9405207,6.81658001 23.0896039,6.88907765 23.2656141,6.88907765 C23.2813762,6.88907765 23.322095,6.88236491 23.3877704,6.86893942 C23.6714883,6.80986727 23.8356769,6.61519769 23.8803362,6.28493068 C23.8908443,6.19900756 23.8960983,6.13859286 23.8960983,6.10368659 C23.8960983,5.94526583 23.8606336,5.81101095 23.7897041,5.70092194 C23.6609803,5.48074394 23.4862836,5.37065493 23.2656141,5.37065493 C23.0475716,5.37065493 22.872875,5.48074394 22.7415241,5.70092194 C22.6705946,5.81906624 22.6351299,5.95600622 22.6351299,6.11174188 Z" id="Shape" opacity="0.460242862" transform="translate(23.265614, 6.099659) rotate(-345.000000) translate(-23.265614, -6.099659) " stroke="#000000" fill="none" stroke-width="0.596455px"></path><path d="M26.6663908,8.06322079 C26.4875405,7.88338801 26.3985293,7.66611446 26.3993514,7.41140013 L26.408283,4.66526131 C26.4088263,4.49810503 26.4508872,4.3440785 26.5344657,4.20318172 C26.6180443,4.06228494 26.7298905,3.95180756 26.8700043,3.87174958 C27.0101182,3.79169161 27.1606578,3.75139804 27.3216232,3.7508689 L27.9854823,4.09095529 L27.9934892,4.06306989 C28.1494875,3.96704022 28.3278507,3.89083637 28.5285788,3.83445835 C28.7557291,3.76738048 28.9643003,3.73352927 29.1542922,3.7329047 C29.5184433,3.73170761 29.869047,3.83933814 30.2061032,4.05579629 L30.2929888,4.1152087 L30.3680386,4.16272041 L30.439415,4.12268709 L30.594055,4.03860149 C30.7896263,3.94509498 30.9574172,3.87423238 31.0974275,3.82601369 C31.3140401,3.75366397 31.5278974,3.71714213 31.7389995,3.71643763 C32.0371812,3.71546795 32.3127113,3.78288327 32.5655897,3.91869414 C32.8184681,4.05450501 33.0177517,4.23957711 33.1634405,4.47391044 C33.3091294,4.70824377 33.3815125,4.96736061 33.3805984,5.25126095 L33.3736431,7.38847334 C33.3730911,7.55828289 33.3316878,7.71297057 33.2494329,7.85253638 C33.1671781,7.99210218 33.0579728,8.10190757 32.9218171,8.18195253 C32.7856614,8.2619975 32.6371009,8.30228456 32.4761355,8.3028137 C32.2254518,8.30363778 32.0106761,8.21678671 31.8318085,8.04226048 C31.6529409,7.86773425 31.5639254,7.65178733 31.5647619,7.39441973 L31.5702209,5.71489715 C31.5703933,5.66183166 31.5606661,5.61012534 31.5410391,5.55977819 C31.5214122,5.50943104 31.4925301,5.46508412 31.4543929,5.42673742 C31.4162557,5.38839073 31.3734704,5.35934567 31.3260371,5.33960226 C31.2786038,5.31985884 31.2284994,5.31007388 31.1757239,5.31024737 C31.067534,5.31060303 30.9737324,5.34938345 30.8943191,5.42658864 C30.8149057,5.50379383 30.7750179,5.59811518 30.7746557,5.7095527 L30.7691449,7.40499493 C30.7682912,7.66766907 30.6791764,7.88818143 30.5018005,8.066532 C30.3350143,8.23423477 30.1262793,8.3184982 29.8755956,8.31932228 C29.6249118,8.32014636 29.4114598,8.23196431 29.2352396,8.05477613 C29.1563609,7.96747832 29.0953414,7.86552894 29.0521811,7.74892801 C29.0090207,7.63232707 28.9876259,7.51698121 28.9879968,7.40289041 L28.9935334,5.69948836 C28.9938783,5.59335739 28.9565798,5.49995309 28.8816377,5.41927545 C28.8066956,5.33859781 28.7164533,5.29710584 28.6109109,5.29479955 C28.4974435,5.29517255 28.399024,5.33396816 28.3156525,5.41118636 C28.2322809,5.48840456 28.190414,5.58273242 28.1900518,5.69416993 L28.1844894,7.40553181 C28.1836442,7.66555268 28.0958574,7.88340743 27.921129,8.05909605 C27.749048,8.23212272 27.5416238,8.31903508 27.2988563,8.31983867 C27.0560889,8.3206312 26.8452671,8.23509375 26.6663908,8.06322079 Z" id="Path" opacity="0.460242862" transform="translate(29.889975, 6.018138) rotate(-15.000000) translate(-29.889975, -6.018138) " stroke="#000000" fill="none" stroke-width="0.596455px"></path><path d="M38.9692152,4.224392 C38.9692152,4.49203604 38.9119787,4.68072509 38.7975058,4.79045914 C38.6830328,4.9001932 38.4926883,4.95506023 38.2264721,4.95506023 L36.0980739,4.95506023 C36.1087225,4.97111887 36.1579725,5.02330946 36.2458238,5.11163199 C36.3230265,5.17051368 36.3969015,5.21400584 36.4674488,5.24210846 C36.5379961,5.27021109 36.6331683,5.29296083 36.7529656,5.31035769 C36.8727629,5.32775455 37.0178507,5.33645299 37.1882291,5.33645299 C37.3532831,5.32842366 37.5622628,5.28961528 37.8151681,5.22002783 C38.0095059,5.1718519 38.1466073,5.14776394 38.2264721,5.14776394 C38.4421072,5.14776394 38.6144822,5.21066029 38.743597,5.33645299 C38.8727118,5.46224568 38.9372693,5.61747923 38.9372693,5.80215361 C38.9372693,5.86906462 38.9319449,5.92125521 38.9212963,5.95872538 C38.8920125,6.06043011 38.8460902,6.15142909 38.7835294,6.2317223 C38.7209686,6.31201551 38.6384416,6.38361029 38.5359484,6.44650664 C38.4334552,6.50940299 38.2890329,6.57430667 38.1026816,6.64121768 C37.8737357,6.71080513 37.6394655,6.76031928 37.3998709,6.78976012 C37.2321547,6.81117164 37.0524588,6.8218774 36.8607832,6.8218774 C36.4641211,6.8218774 36.1000705,6.76366483 35.7686313,6.64723967 C35.4371922,6.53081451 35.1530065,6.36554432 34.9160741,6.15142909 C34.6791417,5.93731385 34.4994458,5.68572846 34.3769863,5.39667289 C34.2545269,5.10761733 34.1932972,4.79179736 34.1932972,4.44921299 C34.2012837,4.14677523 34.2685032,3.85705056 34.3949559,3.58003898 C34.5214086,3.30302739 34.691787,3.0648242 34.906091,2.86542939 C35.120395,2.66603458 35.375297,2.50879371 35.6707969,2.39370677 C35.9662969,2.27861983 36.2857563,2.22107636 36.6291751,2.22107636 C37.0844047,2.22910569 37.4903844,2.33482508 37.8471141,2.53823455 C38.0654113,2.66670369 38.2577525,2.82528278 38.4241376,3.01397183 C38.5905227,3.20266088 38.7209686,3.40205569 38.8154754,3.61215626 C38.9099821,3.82225683 38.9612287,4.02633541 38.9692152,4.224392 Z M36.1140468,4.05979092 L37.088398,4.05979092 C37.088398,4.02767363 37.0857358,4.00090923 37.0804115,3.9794977 C37.0404791,3.71453011 36.8554588,3.58204631 36.5253508,3.58204631 C36.331013,3.63022223 36.199236,3.76538247 36.1300198,3.98752703 C36.1193711,4.01964431 36.1140468,4.04373227 36.1140468,4.05979092 Z" id="Shape" opacity="0.460242862" transform="translate(36.581256, 4.521477) rotate(-345.000000) translate(-36.581256, -4.521477) " stroke="#000000" fill="none" stroke-width="0.596455px"></path></g><g id="Group-6" transform="translate(0.000000, 0.000000)" fill="#232935"><path d="M1.53482749,7.52780565 L0.491692745,3.61573153 C0.476000094,3.55978942 0.46821893,3.50249671 0.468347642,3.44385341 C0.468657286,3.30524196 0.506535254,3.1645468 0.581983156,3.02176792 C0.657431057,2.87898905 0.758520945,2.76347479 0.885252818,2.67522516 C1.00143999,2.58699925 1.14128462,2.52937442 1.30478669,2.50235067 C1.8478387,2.50112893 2.19258523,2.76691247 2.33902627,3.29970129 L3.02170988,5.70919281 L3.71526946,3.22463411 C3.82153985,2.85387783 3.99736084,2.62157582 4.24273243,2.5277281 C4.34299,2.49018427 4.44847846,2.4712878 4.5591978,2.47103666 C4.74636621,2.47061763 4.91164253,2.53488639 5.05502675,2.66384499 C5.19841098,2.79280359 5.30278575,2.97849377 5.36815106,3.22091553 L6.05067473,5.70237837 L6.74407436,3.289791 C6.8928849,2.75633794 7.23881617,2.48900054 7.78186818,2.48777881 C7.9320946,2.50343438 8.07300259,2.56042759 8.20459216,2.65875842 C8.33356332,2.74909838 8.43413488,2.86682453 8.50630684,3.01193689 C8.5784788,3.15704925 8.61441373,3.29757835 8.61411351,3.43352419 C8.61397537,3.4948331 8.60594541,3.54949579 8.59002174,3.59751226 L7.52950676,7.5063223 C7.43383438,7.85306442 7.28035276,8.11597046 7.06906188,8.29504044 C6.85777101,8.47411041 6.60054552,8.56398642 6.29738542,8.56466845 C6.02586534,8.56261372 5.7848375,8.48118904 5.5743019,8.32039441 C5.3637663,8.15959979 5.21399453,7.93935906 5.12498657,7.65967221 L4.53605013,5.7697601 L3.9426444,7.67032897 C3.88953587,7.84371189 3.80416973,8.00117383 3.68654599,8.1427148 C3.56892225,8.28425576 3.43094517,8.39118983 3.27261474,8.463517 C3.11428431,8.53584418 2.94548323,8.57487501 2.7662115,8.58061318 C2.57113456,8.58104839 2.39130301,8.54213549 2.22671683,8.46387083 C2.06213066,8.38560616 1.92267404,8.26863388 1.80834697,8.112954 C1.69401991,7.95727411 1.60284675,7.76222466 1.53482749,7.52780565 Z" id="Path" transform="translate(4.541231, 5.525825) rotate(-10.000000) translate(-4.541231, -5.525825) " fill="#232935"></path><path d="M13.0306909,6.30036584 C13.0306909,6.56800988 12.9734544,6.75669893 12.8589815,6.86643299 C12.7445085,6.97616704 12.554164,7.03103407 12.2879478,7.03103407 L10.1595495,7.03103407 C10.1701982,7.04709271 10.2194482,7.0992833 10.3072995,7.18760584 C10.3845022,7.24648752 10.4583772,7.28997968 10.5289245,7.31808231 C10.5994718,7.34618493 10.694644,7.36893467 10.8144413,7.38633154 C10.9342386,7.4037284 11.0793264,7.41242683 11.2497048,7.41242683 C11.4147588,7.40439751 11.6237385,7.36558912 11.8766438,7.29600167 C12.0709816,7.24782574 12.208083,7.22373778 12.2879478,7.22373778 C12.5035829,7.22373778 12.6759579,7.28663413 12.8050727,7.41242683 C12.9341875,7.53821953 12.998745,7.69345307 12.998745,7.87812746 C12.998745,7.94503847 12.9934206,7.99722906 12.982772,8.03469922 C12.9534882,8.13640396 12.9075659,8.22740293 12.8450051,8.30769614 C12.7824443,8.38798935 12.6999173,8.45958413 12.5974241,8.52248048 C12.4949309,8.58537683 12.3505086,8.65028051 12.1641573,8.71719152 C11.9352114,8.78677897 11.7009412,8.83629312 11.4613466,8.86573396 C11.2936304,8.88714549 11.1139345,8.89785125 10.9222589,8.89785125 C10.5255968,8.89785125 10.1615462,8.83963867 9.83010704,8.72321351 C9.49866792,8.60678836 9.21448216,8.44151816 8.97754977,8.22740293 C8.74061738,8.0132877 8.56092147,7.7617023 8.43846203,7.47264674 C8.3160026,7.18359118 8.25477288,6.86777121 8.25477288,6.52518684 C8.26275936,6.22274907 8.32997895,5.9330244 8.45643162,5.65601282 C8.5828843,5.37900124 8.75326265,5.14079804 8.96756666,4.94140323 C9.18187068,4.74200842 9.43677266,4.58476755 9.7322726,4.46968061 C10.0277725,4.35459368 10.3472319,4.29705021 10.6906508,4.29705021 C11.1458804,4.30507953 11.5518601,4.41079893 11.9085898,4.6142084 C12.126887,4.74267753 12.3192282,4.90125663 12.4856133,5.08994568 C12.6519984,5.27863472 12.7824443,5.47802953 12.8769511,5.6881301 C12.9714578,5.89823068 13.0227044,6.10230926 13.0306909,6.30036584 Z M10.1755225,6.13576476 L11.1498737,6.13576476 C11.1498737,6.10364748 11.1472115,6.07688307 11.1418872,6.05547155 C11.1019548,5.79050395 10.9169345,5.65802015 10.5868265,5.65802015 C10.3924887,5.70619608 10.2607117,5.84135632 10.1914955,6.06350087 C10.1808468,6.09561815 10.1755225,6.11970612 10.1755225,6.13576476 Z" id="Shape" transform="translate(10.642732, 6.597451) rotate(-11.000000) translate(-10.642732, -6.597451) " fill="#232935"></path><path d="M13.9991473,6.33482961 C13.8207621,6.15249377 13.7315695,5.93261821 13.7315695,5.67520291 L13.7315695,0.904975658 C13.7315695,0.744091097 13.7722309,0.593932173 13.8535535,0.454498886 C13.9348762,0.3150656 14.0450552,0.204457464 14.1840908,0.122674478 C14.3231263,0.0408914927 14.47659,0 14.6444819,0 C14.8045039,0.00268140936 14.9520651,0.0462543114 15.0871657,0.130718706 C15.2222662,0.215183101 15.3285103,0.327131942 15.405898,0.466565228 C15.4832857,0.605998515 15.5219795,0.757498144 15.5219795,0.921064115 L15.5219795,5.66715868 C15.5219795,5.9299368 15.4367219,6.15249377 15.2662067,6.33482961 C15.0825749,6.50912122 14.8700867,6.59626702 14.628742,6.59626702 C14.3873974,6.59626702 14.1775325,6.50912122 13.9991473,6.33482961 Z" id="Path" fill="#232935"></path><path d="M16.4562827,6.69604227 C16.1562482,6.27518638 16.0068653,5.82475615 16.0081261,5.34475159 C16.0113977,5.10076436 16.0618064,4.8533361 16.1593602,4.6024668 C16.2569141,4.3515975 16.3897554,4.12516425 16.5578841,3.92316705 C16.6813269,3.78493596 16.7968401,3.67457144 16.9044236,3.59207351 C17.1143391,3.43239558 17.343788,3.31310748 17.5927701,3.23420922 C17.8417522,3.15531096 18.1194364,3.11545204 18.4258228,3.11460461 C18.5934188,3.11418414 18.7204112,3.11914832 18.8067998,3.12952499 C19.7021455,3.21994786 20.1489597,3.59002425 20.1472423,4.23975419 C20.1152994,4.4360832 20.0271563,4.59410943 19.882813,4.71383285 C19.7384698,4.83355627 19.5602413,4.89370169 19.3481276,4.89426909 C19.3088473,4.89437417 19.2630343,4.88919283 19.2106886,4.8787251 L19.1714293,4.8708743 L18.9633698,4.82369593 L18.8573761,4.800112 L18.6885654,4.76476238 C18.6414571,4.75428063 18.5694572,4.74916935 18.4725657,4.74942853 C18.2630707,4.74998893 18.0953188,4.80944333 17.9693099,4.92779174 C17.8433009,5.04614015 17.7800336,5.20476282 17.7795079,5.40365974 C17.7870485,5.52297687 17.8155894,5.62301127 17.8651307,5.70376292 C17.914672,5.78451457 17.989117,5.85525483 18.0884659,5.9159837 C18.1956709,5.97669155 18.3147406,6.00687035 18.4456749,6.0065201 C18.5163795,6.00633097 18.6015079,5.99814743 18.70106,5.98196949 L18.7246282,5.98190644 L19.0076252,5.91352495 C19.0836162,5.8947581 19.1857801,5.88122511 19.3141168,5.87292599 C19.5759855,5.87222549 19.7819969,5.95123262 19.9321508,6.10994737 C20.0823047,6.26866211 20.1570137,6.48724733 20.1562831,6.76570302 C20.1322469,6.94079535 20.057213,7.09281964 19.931176,7.22177589 C19.805139,7.35073213 19.6176383,7.45134443 19.3686737,7.5236128 C19.1197091,7.59588116 18.8132281,7.63250219 18.4492305,7.63347588 C18.0119308,7.62668983 17.6252388,7.5448511 17.2891545,7.38795968 C16.9530703,7.23106827 16.6754463,7.00042913 16.4562827,6.69604227 Z" id="Path" transform="translate(18.082205, 5.374040) rotate(-12.000000) translate(-18.082205, -5.374040) " fill="#232935"></path><path d="M23.2656141,8.43972154 C22.8242752,8.43972154 22.4216847,8.33634528 22.0578428,8.12959276 C21.6940008,7.92284024 21.4069991,7.64157627 21.1968377,7.28580083 C20.9866763,6.93002539 20.8802821,6.54135751 20.8776551,6.11979717 C20.8776551,5.69823684 20.982079,5.30554131 21.1909269,4.94171058 C21.3997748,4.57787985 21.6867765,4.28990313 22.051932,4.07778042 C22.4170874,3.8656577 22.8216481,3.75959634 23.2656141,3.75959634 C23.5808562,3.75959634 23.8737687,3.81128447 24.1443515,3.91466073 C24.4149343,4.01803699 24.6579334,4.16504609 24.8733489,4.35568802 C25.0046998,4.47114722 25.1196318,4.59734681 25.218145,4.73428679 C25.3166581,4.87122677 25.3980957,5.01353694 25.4624576,5.16121732 C25.5268195,5.30889769 25.5747626,5.46194825 25.6062868,5.62036901 C25.637811,5.77878977 25.6535731,5.93721054 25.6535731,6.0956313 C25.6535731,6.36145596 25.6095706,6.62191043 25.5215655,6.87699471 C25.4335604,7.13207899 25.3015528,7.36635376 25.1255426,7.57981902 C24.9495324,7.79328428 24.7380575,7.97251455 24.4911178,8.11750982 C24.1207083,8.33231763 23.7122071,8.43972154 23.2656141,8.43972154 Z M22.6351299,6.11174188 C22.6351299,6.33997518 22.696208,6.52658947 22.8183644,6.67158474 C22.9405207,6.81658001 23.0896039,6.88907765 23.2656141,6.88907765 C23.2813762,6.88907765 23.322095,6.88236491 23.3877704,6.86893942 C23.6714883,6.80986727 23.8356769,6.61519769 23.8803362,6.28493068 C23.8908443,6.19900756 23.8960983,6.13859286 23.8960983,6.10368659 C23.8960983,5.94526583 23.8606336,5.81101095 23.7897041,5.70092194 C23.6609803,5.48074394 23.4862836,5.37065493 23.2656141,5.37065493 C23.0475716,5.37065493 22.872875,5.48074394 22.7415241,5.70092194 C22.6705946,5.81906624 22.6351299,5.95600622 22.6351299,6.11174188 Z" id="Shape" transform="translate(23.265614, 6.099659) rotate(-345.000000) translate(-23.265614, -6.099659) " fill="#232935"></path><path d="M26.6663908,8.06322079 C26.4875405,7.88338801 26.3985293,7.66611446 26.3993514,7.41140013 L26.408283,4.66526131 C26.4088263,4.49810503 26.4508872,4.3440785 26.5344657,4.20318172 C26.6180443,4.06228494 26.7298905,3.95180756 26.8700043,3.87174958 C27.0101182,3.79169161 27.1606578,3.75139804 27.3216232,3.7508689 L27.9854823,4.09095529 L27.9934892,4.06306989 C28.1494875,3.96704022 28.3278507,3.89083637 28.5285788,3.83445835 C28.7557291,3.76738048 28.9643003,3.73352927 29.1542922,3.7329047 C29.5184433,3.73170761 29.869047,3.83933814 30.2061032,4.05579629 L30.2929888,4.1152087 L30.3680386,4.16272041 L30.439415,4.12268709 L30.594055,4.03860149 C30.7896263,3.94509498 30.9574172,3.87423238 31.0974275,3.82601369 C31.3140401,3.75366397 31.5278974,3.71714213 31.7389995,3.71643763 C32.0371812,3.71546795 32.3127113,3.78288327 32.5655897,3.91869414 C32.8184681,4.05450501 33.0177517,4.23957711 33.1634405,4.47391044 C33.3091294,4.70824377 33.3815125,4.96736061 33.3805984,5.25126095 L33.3736431,7.38847334 C33.3730911,7.55828289 33.3316878,7.71297057 33.2494329,7.85253638 C33.1671781,7.99210218 33.0579728,8.10190757 32.9218171,8.18195253 C32.7856614,8.2619975 32.6371009,8.30228456 32.4761355,8.3028137 C32.2254518,8.30363778 32.0106761,8.21678671 31.8318085,8.04226048 C31.6529409,7.86773425 31.5639254,7.65178733 31.5647619,7.39441973 L31.5702209,5.71489715 C31.5703933,5.66183166 31.5606661,5.61012534 31.5410391,5.55977819 C31.5214122,5.50943104 31.4925301,5.46508412 31.4543929,5.42673742 C31.4162557,5.38839073 31.3734704,5.35934567 31.3260371,5.33960226 C31.2786038,5.31985884 31.2284994,5.31007388 31.1757239,5.31024737 C31.067534,5.31060303 30.9737324,5.34938345 30.8943191,5.42658864 C30.8149057,5.50379383 30.7750179,5.59811518 30.7746557,5.7095527 L30.7691449,7.40499493 C30.7682912,7.66766907 30.6791764,7.88818143 30.5018005,8.066532 C30.3350143,8.23423477 30.1262793,8.3184982 29.8755956,8.31932228 C29.6249118,8.32014636 29.4114598,8.23196431 29.2352396,8.05477613 C29.1563609,7.96747832 29.0953414,7.86552894 29.0521811,7.74892801 C29.0090207,7.63232707 28.9876259,7.51698121 28.9879968,7.40289041 L28.9935334,5.69948836 C28.9938783,5.59335739 28.9565798,5.49995309 28.8816377,5.41927545 C28.8066956,5.33859781 28.7164533,5.29710584 28.6109109,5.29479955 C28.4974435,5.29517255 28.399024,5.33396816 28.3156525,5.41118636 C28.2322809,5.48840456 28.190414,5.58273242 28.1900518,5.69416993 L28.1844894,7.40553181 C28.1836442,7.66555268 28.0958574,7.88340743 27.921129,8.05909605 C27.749048,8.23212272 27.5416238,8.31903508 27.2988563,8.31983867 C27.0560889,8.3206312 26.8452671,8.23509375 26.6663908,8.06322079 Z" id="Path" transform="translate(29.889975, 6.018138) rotate(-15.000000) translate(-29.889975, -6.018138) " fill="#232935"></path><path d="M38.9692152,4.224392 C38.9692152,4.49203604 38.9119787,4.68072509 38.7975058,4.79045914 C38.6830328,4.9001932 38.4926883,4.95506023 38.2264721,4.95506023 L36.0980739,4.95506023 C36.1087225,4.97111887 36.1579725,5.02330946 36.2458238,5.11163199 C36.3230265,5.17051368 36.3969015,5.21400584 36.4674488,5.24210846 C36.5379961,5.27021109 36.6331683,5.29296083 36.7529656,5.31035769 C36.8727629,5.32775455 37.0178507,5.33645299 37.1882291,5.33645299 C37.3532831,5.32842366 37.5622628,5.28961528 37.8151681,5.22002783 C38.0095059,5.1718519 38.1466073,5.14776394 38.2264721,5.14776394 C38.4421072,5.14776394 38.6144822,5.21066029 38.743597,5.33645299 C38.8727118,5.46224568 38.9372693,5.61747923 38.9372693,5.80215361 C38.9372693,5.86906462 38.9319449,5.92125521 38.9212963,5.95872538 C38.8920125,6.06043011 38.8460902,6.15142909 38.7835294,6.2317223 C38.7209686,6.31201551 38.6384416,6.38361029 38.5359484,6.44650664 C38.4334552,6.50940299 38.2890329,6.57430667 38.1026816,6.64121768 C37.8737357,6.71080513 37.6394655,6.76031928 37.3998709,6.78976012 C37.2321547,6.81117164 37.0524588,6.8218774 36.8607832,6.8218774 C36.4641211,6.8218774 36.1000705,6.76366483 35.7686313,6.64723967 C35.4371922,6.53081451 35.1530065,6.36554432 34.9160741,6.15142909 C34.6791417,5.93731385 34.4994458,5.68572846 34.3769863,5.39667289 C34.2545269,5.10761733 34.1932972,4.79179736 34.1932972,4.44921299 C34.2012837,4.14677523 34.2685032,3.85705056 34.3949559,3.58003898 C34.5214086,3.30302739 34.691787,3.0648242 34.906091,2.86542939 C35.120395,2.66603458 35.375297,2.50879371 35.6707969,2.39370677 C35.9662969,2.27861983 36.2857563,2.22107636 36.6291751,2.22107636 C37.0844047,2.22910569 37.4903844,2.33482508 37.8471141,2.53823455 C38.0654113,2.66670369 38.2577525,2.82528278 38.4241376,3.01397183 C38.5905227,3.20266088 38.7209686,3.40205569 38.8154754,3.61215626 C38.9099821,3.82225683 38.9612287,4.02633541 38.9692152,4.224392 Z M36.1140468,4.05979092 L37.088398,4.05979092 C37.088398,4.02767363 37.0857358,4.00090923 37.0804115,3.9794977 C37.0404791,3.71453011 36.8554588,3.58204631 36.5253508,3.58204631 C36.331013,3.63022223 36.199236,3.76538247 36.1300198,3.98752703 C36.1193711,4.01964431 36.1140468,4.04373227 36.1140468,4.05979092 Z" id="Shape" transform="translate(36.581256, 4.521477) rotate(-345.000000) translate(-36.581256, -4.521477) " fill="#232935"></path></g></g><polyline id="Path-16" stroke="#FFFFFF" stroke-width="0.596455px" opacity="0.270310901" stroke-linecap="round" points="41.8443784 63.7159172 30.2067135 71.5902109 18.4876663 64.0869572" fill="none"></polyline><line x1="48.1108134" y1="60.1704236" x2="57.5104658" y2="64.6229039" id="Path-17" stroke="#FFFFFF" stroke-width="0.596455px" opacity="0.270310901" stroke-linecap="round" fill="none"></line><line x1="7.623133" y1="64.2930905" x2="12.3433048" y2="61.242317" id="Path-21" stroke="#FFFFFF" stroke-width="0.596455px" opacity="0.270310901" stroke-linecap="round" fill="none"></line><path d="M27.968701,36.0115957 C27.0314753,36.9810138 26.3939809,38.0254228 26.0562176,39.1448225 C25.3975072,41.3278909 24.8761747,45.442245 24.8761747,47.5550629 C24.8761747,51.2929476 25.7171248,52.117481 27.3990251,50.0286631 L22.4347065,51.5952765 L21.7836483,44.3393828 L23.5333672,36.0115957 L27.968701,36.0115957 Z" id="Path-23" fill="#232935" opacity="0.075965518"></path><path d="M37.6508542,0.000499446935 C38.0701981,-0.0141509965 38.2364897,0.293508316 38.1497289,0.923477383 C38.0629681,1.55344645 38.3594008,1.7732031 39.0390272,1.58274734" id="Path-22" stroke="#FF4949" stroke-width="0.596455px" stroke-linecap="round" fill="none"></path><path d="M39.3509154,19.2955828 C39.7729236,19.283787 39.9423077,19.5905423 39.8590676,20.2158488 C39.7758275,20.8411553 40.0756382,21.0614353 40.7584998,20.8766888" id="Path-22-Copy" stroke="#FF4949" stroke-width="0.596455px" stroke-linecap="round" transform="translate(40.054708, 20.117573) rotate(-315.000000) translate(-40.054708, -20.117573) " fill="none"></path><path d="M12.9015087,3.88651049 C13.3263716,3.87205036 13.4948517,4.17571319 13.406949,4.79749898 C13.3190463,5.41928477 13.6193804,5.63618679 14.3079513,5.44820504" id="Path-22-Copy-2" stroke="#FF4949" stroke-width="0.596455px" stroke-linecap="round" transform="translate(13.604730, 4.699840) rotate(-90.000000) translate(-13.604730, -4.699840) " fill="none"></path><path d="M50.5815007,17.4088579 C51.0063635,17.3943978 51.1748436,17.6980606 51.086941,18.3198464 C50.9990383,18.9416322 51.2993724,19.1585342 51.9879433,18.9705524" id="Path-22-Copy-3" stroke="#8DD484" stroke-width="0.596455px" stroke-linecap="round" transform="translate(51.284722, 18.222188) rotate(-90.000000) translate(-51.284722, -18.222188) " fill="none"></path><path d="M54.8133788,6.03029727 C55.2382417,6.01583714 55.4067218,6.31949997 55.3188191,6.94128576 C55.2309165,7.56307155 55.5312506,7.77997358 56.2198214,7.59199182" id="Path-22-Copy-4" stroke="#C884D4" stroke-width="0.596455px" stroke-linecap="round" transform="translate(55.516600, 6.843627) rotate(-90.000000) translate(-55.516600, -6.843627) " fill="none"></path><path d="M34.3864285,16.0071511 C34.8112914,15.992691 34.9797715,16.2963538 34.8918688,16.9181396 C34.8039662,17.5399254 35.1043003,17.7568274 35.7928711,17.5688457" id="Path-22-Copy-5" stroke="#8DD484" stroke-width="0.596455px" stroke-linecap="round" transform="translate(35.089650, 16.820481) rotate(-270.000000) translate(-35.089650, -16.820481) " fill="none"></path><path d="M23.1656091,3.52241391 C23.5872318,3.50513966 23.7524356,3.81014583 23.6612203,4.43743241 C23.5700051,5.06471899 23.8665868,5.28143704 24.5509655,5.08758657" id="Path-22-Copy-5" stroke="#8DD484" stroke-width="0.596455px" stroke-linecap="round" transform="translate(23.858287, 4.338976) rotate(-219.000000) translate(-23.858287, -4.338976) " fill="none"></path><path d="M39.1898657,6.70192561 C39.6094472,6.68849447 39.7767255,6.99643125 39.6917005,7.62573594 C39.6066756,8.25504063 39.9039315,8.47550794 40.5834681,8.28713788" id="Path-22-Copy-5" stroke="#C884D4" stroke-width="0.596455px" stroke-linecap="round" transform="translate(39.886667, 7.526868) rotate(-167.000000) translate(-39.886667, -7.526868) " fill="none"></path><path d="M21.5331713,19.1889458 C21.9568986,19.1766236 22.1265327,19.4819167 22.0420738,20.1048252 C21.9576148,20.7277336 22.2583239,20.9467214 22.9442011,20.7617884" id="Path-22-Copy-5" stroke="#C884D4" stroke-width="0.596455px" stroke-linecap="round" transform="translate(22.238686, 20.006939) rotate(-116.000000) translate(-22.238686, -20.006939) " fill="none"></path><path d="M13.71385,19.9359354 C14.1377273,19.9192642 14.3042122,20.2228327 14.2133047,20.846641 C14.1223972,21.4704492 14.4208569,21.6863627 15.1086836,21.4943813" id="Path-22-Copy-5" stroke="#8DD484" stroke-width="0.596455px" stroke-linecap="round" transform="translate(14.411267, 20.748717) rotate(-64.000000) translate(-14.411267, -20.748717) " fill="none"></path><path d="M46.5280318,3.90136971 C46.9476967,3.88551922 47.113223,4.1924966 47.0246108,4.82230185 C46.9359986,5.45210709 47.232003,5.67086418 47.9126243,5.4785731" id="Path-22-Copy-5" stroke="#8DD484" stroke-width="0.596455px" stroke-linecap="round" transform="translate(47.220328, 4.723413) rotate(-13.000000) translate(-47.220328, -4.723413) " fill="none"></path><path d="M6.22893545,12.8329113 C6.65037203,12.8210354 6.81948492,13.1281823 6.73627411,13.754352 C6.6530633,14.3805217 6.95243729,14.6010558 7.63439606,14.4159544" id="Path-22-Copy-5" stroke="#8DD484" stroke-width="0.596455px" stroke-linecap="round" transform="translate(6.931666, 13.655942) rotate(39.000000) translate(-6.931666, -13.655942) " fill="none"></path><path d="M46.3610945,69.9411442 L46.3610945,69.9411442 L46.3610945,69.9411442 L58.2835974,69.9411442 L49.3230589,68.4001497 C48.1016684,68.1901003 46.8901328,68.820415 46.3610945,69.9411442 Z" id="Path-26" fill="#000000" opacity="0.0757293701"></path><path d="M6.56516346,69.9411442 L6.56516346,69.9411442 L6.56516346,69.9411442 L18.4876663,69.9411442 L9.52712784,68.4001497 C8.30573738,68.1901003 7.09420174,68.820415 6.56516346,69.9411442 Z" id="Path-26-Copy" fill="#000000" opacity="0.0757293701" transform="translate(12.526415, 68.992931) scale(-1, 1) translate(-12.526415, -68.992931) "></path></g></g></svg>